solid OpenSCAD_Model
  facet normal -1 0 0
    outer loop
      vertex -15 -15 0
      vertex -15 15 30
      vertex -15 15 0
    endloop
  endfacet
  facet normal -1 -0 0
    outer loop
      vertex -15 15 30
      vertex -15 -15 0
      vertex -15 -15 30
    endloop
  endfacet
  facet normal 0 0 1
    outer loop
      vertex 15 15 30
      vertex 1 0 30
      vertex 15 -15 30
    endloop
  endfacet
  facet normal 0 0 1
    outer loop
      vertex 15 15 30
      vertex 0.309016 0.951056 30
      vertex 1 0 30
    endloop
  endfacet
  facet normal -0 0 1
    outer loop
      vertex -15 15 30
      vertex 0.309016 0.951056 30
      vertex 15 15 30
    endloop
  endfacet
  facet normal 0 0 1
    outer loop
      vertex -0.809016 0.587785 30
      vertex -15 15 30
      vertex -0.809016 -0.587785 30
    endloop
  endfacet
  facet normal 0 0 1
    outer loop
      vertex 0.309016 0.951056 30
      vertex -15 15 30
      vertex -0.809016 0.587785 30
    endloop
  endfacet
  facet normal -0 0 1
    outer loop
      vertex 0.309016 -0.951056 30
      vertex 15 -15 30
      vertex 1 0 30
    endloop
  endfacet
  facet normal 0 0 1
    outer loop
      vertex -15 -15 30
      vertex 0.309016 -0.951056 30
      vertex -0.809016 -0.587785 30
    endloop
  endfacet
  facet normal 0 0 1
    outer loop
      vertex 0.309016 -0.951056 30
      vertex -15 -15 30
      vertex 15 -15 30
    endloop
  endfacet
  facet normal 0 0 1
    outer loop
      vertex -15 -15 30
      vertex -0.809016 -0.587785 30
      vertex -15 15 30
    endloop
  endfacet
  facet normal 1 -0 0
    outer loop
      vertex 15 -15 30
      vertex 15 15 0
      vertex 15 15 30
    endloop
  endfacet
  facet normal 1 0 0
    outer loop
      vertex 15 15 0
      vertex 15 -15 30
      vertex 15 -15 0
    endloop
  endfacet
  facet normal 0 1 -0
    outer loop
      vertex 15 15 0
      vertex -15 15 30
      vertex 15 15 30
    endloop
  endfacet
  facet normal 0 1 0
    outer loop
      vertex -15 15 30
      vertex 15 15 0
      vertex -15 15 0
    endloop
  endfacet
  facet normal 0 0 -1
    outer loop
      vertex -15 -15 0
      vertex 15 15 0
      vertex 15 -15 0
    endloop
  endfacet
  facet normal -0 0 -1
    outer loop
      vertex 15 15 0
      vertex -15 -15 0
      vertex -15 15 0
    endloop
  endfacet
  facet normal 0 -1 0
    outer loop
      vertex -15 -15 0
      vertex 15 -15 30
      vertex -15 -15 30
    endloop
  endfacet
  facet normal 0 -1 -0
    outer loop
      vertex 15 -15 30
      vertex -15 -15 0
      vertex 15 -15 0
    endloop
  endfacet
  facet normal -0.809017 -0.587786 0
    outer loop
      vertex 1 0 29
      vertex 0.309016 0.951056 30
      vertex 0.309016 0.951056 29
    endloop
  endfacet
  facet normal -0.809017 -0.587786 0
    outer loop
      vertex 0.309016 0.951056 30
      vertex 1 0 29
      vertex 1 0 30
    endloop
  endfacet
  facet normal 1 -0 0
    outer loop
      vertex -0.809016 -0.587785 30
      vertex -0.809016 0.587785 29
      vertex -0.809016 0.587785 30
    endloop
  endfacet
  facet normal 1 0 0
    outer loop
      vertex -0.809016 0.587785 29
      vertex -0.809016 -0.587785 30
      vertex -0.809016 -0.587785 29
    endloop
  endfacet
  facet normal 0.309018 -0.951056 0
    outer loop
      vertex -0.809016 0.587785 29
      vertex 0.309016 0.951056 30
      vertex -0.809016 0.587785 30
    endloop
  endfacet
  facet normal 0.309018 -0.951056 0
    outer loop
      vertex 0.309016 0.951056 30
      vertex -0.809016 0.587785 29
      vertex 0.309016 0.951056 29
    endloop
  endfacet
  facet normal 0.309018 0.951056 -0
    outer loop
      vertex 0.309016 -0.951056 29
      vertex -0.809016 -0.587785 30
      vertex 0.309016 -0.951056 30
    endloop
  endfacet
  facet normal 0.309018 0.951056 0
    outer loop
      vertex -0.809016 -0.587785 30
      vertex 0.309016 -0.951056 29
      vertex -0.809016 -0.587785 29
    endloop
  endfacet
  facet normal 0 0 1
    outer loop
      vertex 0.309016 0.951056 29
      vertex 0.309016 -0.951056 29
      vertex 1 0 29
    endloop
  endfacet
  facet normal -0 0 1
    outer loop
      vertex -0.809016 0.587785 29
      vertex 0.309016 -0.951056 29
      vertex 0.309016 0.951056 29
    endloop
  endfacet
  facet normal 0 0 1
    outer loop
      vertex 0.309016 -0.951056 29
      vertex -0.809016 0.587785 29
      vertex -0.809016 -0.587785 29
    endloop
  endfacet
  facet normal -0.809017 0.587786 0
    outer loop
      vertex 0.309016 -0.951056 29
      vertex 1 0 30
      vertex 1 0 29
    endloop
  endfacet
  facet normal -0.809017 0.587786 0
    outer loop
      vertex 1 0 30
      vertex 0.309016 -0.951056 29
      vertex 0.309016 -0.951056 30
    endloop
  endfacet
endsolid OpenSCAD_Model
