solid OpenSCAD_Model
  facet normal -1 0 0
    outer loop
      vertex -15 -15 0
      vertex -15 -12.6971 7.09639
      vertex -15 -11.1472 4.96304
    endloop
  endfacet
  facet normal -1 -0 0
    outer loop
      vertex -15 -14.9178 13.4321
      vertex -15 -15 0
      vertex -15 -14.9178 16.5679
    endloop
  endfacet
  facet normal -1 -0 0
    outer loop
      vertex -15 -14.2658 10.3647
      vertex -15 -15 0
      vertex -15 -14.9178 13.4321
    endloop
  endfacet
  facet normal -1 -0 0
    outer loop
      vertex -15 -13.1933 7.95575
      vertex -15 -15 0
      vertex -15 -14.2658 10.3647
    endloop
  endfacet
  facet normal -1 -0 0
    outer loop
      vertex -15 -12.9904 7.5
      vertex -15 -15 0
      vertex -15 -13.1933 7.95575
    endloop
  endfacet
  facet normal -1 -0 0
    outer loop
      vertex -15 -12.6971 7.09639
      vertex -15 -15 0
      vertex -15 -12.9904 7.5
    endloop
  endfacet
  facet normal -1 -0 0
    outer loop
      vertex -15 -8.81678 2.86474
      vertex -15 -15 0
      vertex -15 -11.1472 4.96304
    endloop
  endfacet
  facet normal -1 -0 0
    outer loop
      vertex -15 -6.10105 1.29682
      vertex -15 -15 0
      vertex -15 -8.81678 2.86474
    endloop
  endfacet
  facet normal -1 -0 0
    outer loop
      vertex -15 -3.11868 0.327785
      vertex -15 -15 0
      vertex -15 -6.10105 1.29682
    endloop
  endfacet
  facet normal -1 0 0
    outer loop
      vertex -15 -15 0
      vertex -15 -3.11868 0.327785
      vertex -15 0 0
    endloop
  endfacet
  facet normal -1 0 0
    outer loop
      vertex -15 15 0
      vertex -15 14.9178 13.4321
      vertex -15 15 30
    endloop
  endfacet
  facet normal -1 0 0
    outer loop
      vertex -15 15 0
      vertex -15 14.2658 10.3647
      vertex -15 14.9178 13.4321
    endloop
  endfacet
  facet normal -1 0 0
    outer loop
      vertex -15 15 0
      vertex -15 13.1933 7.95575
      vertex -15 14.2658 10.3647
    endloop
  endfacet
  facet normal -1 0 0
    outer loop
      vertex -15 15 0
      vertex -15 12.9904 7.5
      vertex -15 13.1933 7.95575
    endloop
  endfacet
  facet normal -1 0 0
    outer loop
      vertex -15 15 0
      vertex -15 12.6971 7.09639
      vertex -15 12.9904 7.5
    endloop
  endfacet
  facet normal -1 0 0
    outer loop
      vertex -15 15 0
      vertex -15 11.1472 4.96304
      vertex -15 12.6971 7.09639
    endloop
  endfacet
  facet normal -1 0 0
    outer loop
      vertex -15 15 0
      vertex -15 8.81678 2.86474
      vertex -15 11.1472 4.96304
    endloop
  endfacet
  facet normal -1 0 0
    outer loop
      vertex -15 15 0
      vertex -15 6.10105 1.29682
      vertex -15 8.81678 2.86474
    endloop
  endfacet
  facet normal -1 0 0
    outer loop
      vertex -15 15 0
      vertex -15 3.11868 0.327785
      vertex -15 6.10105 1.29682
    endloop
  endfacet
  facet normal -1 0 -0
    outer loop
      vertex -15 3.11868 0.327785
      vertex -15 15 0
      vertex -15 0 0
    endloop
  endfacet
  facet normal -1 0 0
    outer loop
      vertex -15 14.9178 16.5679
      vertex -15 15 30
      vertex -15 14.9178 13.4321
    endloop
  endfacet
  facet normal -1 0 0
    outer loop
      vertex -15 14.2658 19.6353
      vertex -15 15 30
      vertex -15 14.9178 16.5679
    endloop
  endfacet
  facet normal -1 0 0
    outer loop
      vertex -15 14.0629 20.091
      vertex -15 15 30
      vertex -15 14.2658 19.6353
    endloop
  endfacet
  facet normal -1 0 0
    outer loop
      vertex -15 12.9904 22.5
      vertex -15 15 30
      vertex -15 14.0629 20.091
    endloop
  endfacet
  facet normal -1 0 0
    outer loop
      vertex -15 11.4404 24.6334
      vertex -15 15 30
      vertex -15 12.9904 22.5
    endloop
  endfacet
  facet normal -1 0 0
    outer loop
      vertex -15 11.1472 25.037
      vertex -15 15 30
      vertex -15 11.4404 24.6334
    endloop
  endfacet
  facet normal -1 0 0
    outer loop
      vertex -15 8.81678 27.1353
      vertex -15 15 30
      vertex -15 11.1472 25.037
    endloop
  endfacet
  facet normal -1 0 0
    outer loop
      vertex -15 6.10105 28.7032
      vertex -15 15 30
      vertex -15 8.81678 27.1353
    endloop
  endfacet
  facet normal -1 0 0
    outer loop
      vertex -15 3.11868 29.6722
      vertex -15 15 30
      vertex -15 6.10105 28.7032
    endloop
  endfacet
  facet normal -1 0 0
    outer loop
      vertex -15 2.62252 29.7244
      vertex -15 15 30
      vertex -15 3.11868 29.6722
    endloop
  endfacet
  facet normal -1 -0 0
    outer loop
      vertex -15 15 30
      vertex -15 2.62252 29.7244
      vertex -15 0 30
    endloop
  endfacet
  facet normal -1 0 0
    outer loop
      vertex -15 -15 30
      vertex -15 -2.62252 29.7244
      vertex -15 -3.11868 29.6722
    endloop
  endfacet
  facet normal -1 0 0
    outer loop
      vertex -15 -2.62252 29.7244
      vertex -15 -15 30
      vertex -15 0 30
    endloop
  endfacet
  facet normal -1 0 0
    outer loop
      vertex -15 -6.10105 28.7032
      vertex -15 -15 30
      vertex -15 -3.11868 29.6722
    endloop
  endfacet
  facet normal -1 0 0
    outer loop
      vertex -15 -8.81678 27.1353
      vertex -15 -15 30
      vertex -15 -6.10105 28.7032
    endloop
  endfacet
  facet normal -1 0 0
    outer loop
      vertex -15 -11.1472 25.037
      vertex -15 -15 30
      vertex -15 -8.81678 27.1353
    endloop
  endfacet
  facet normal -1 0 0
    outer loop
      vertex -15 -12.9904 22.5
      vertex -15 -15 30
      vertex -15 -11.1472 25.037
    endloop
  endfacet
  facet normal -1 0 0
    outer loop
      vertex -15 -14.2658 19.6353
      vertex -15 -15 30
      vertex -15 -12.9904 22.5
    endloop
  endfacet
  facet normal -1 0 0
    outer loop
      vertex -15 -14.9178 16.5679
      vertex -15 -15 30
      vertex -15 -14.2658 19.6353
    endloop
  endfacet
  facet normal -1 0 0
    outer loop
      vertex -15 -15 30
      vertex -15 -14.9178 16.5679
      vertex -15 -15 0
    endloop
  endfacet
  facet normal 0 0 0
    outer loop
      vertex -15 0 30
      vertex -15 -15 30
      vertex -15 15 30
    endloop
  endfacet
  facet normal 0 0 1
    outer loop
      vertex 15 15 30
      vertex 2.5 0 30
      vertex 15 -15 30
    endloop
  endfacet
  facet normal 0 0 1
    outer loop
      vertex 15 15 30
      vertex 1.76777 1.76777 30
      vertex 2.5 0 30
    endloop
  endfacet
  facet normal 0 0 1
    outer loop
      vertex 15 15 30
      vertex 0 2.5 30
      vertex 1.76777 1.76777 30
    endloop
  endfacet
  facet normal -0 0 1
    outer loop
      vertex -15 15 30
      vertex 0 2.5 30
      vertex 15 15 30
    endloop
  endfacet
  facet normal 0 0 1
    outer loop
      vertex -1.76777 1.76777 30
      vertex -15 15 30
      vertex -2.5 0 30
    endloop
  endfacet
  facet normal 0 0 1
    outer loop
      vertex 0 2.5 30
      vertex -15 15 30
      vertex -1.76777 1.76777 30
    endloop
  endfacet
  facet normal -0 0 1
    outer loop
      vertex 1.76777 -1.76777 30
      vertex 15 -15 30
      vertex 2.5 0 30
    endloop
  endfacet
  facet normal -0 0 1
    outer loop
      vertex 0 -2.5 30
      vertex 15 -15 30
      vertex 1.76777 -1.76777 30
    endloop
  endfacet
  facet normal 0 0 1
    outer loop
      vertex -15 -15 30
      vertex 0 -2.5 30
      vertex -1.76777 -1.76777 30
    endloop
  endfacet
  facet normal 0 0 1
    outer loop
      vertex -15 -15 30
      vertex -2.5 0 30
      vertex -15 15 30
    endloop
  endfacet
  facet normal 0 0 1
    outer loop
      vertex 0 -2.5 30
      vertex -15 -15 30
      vertex 15 -15 30
    endloop
  endfacet
  facet normal 0 0 1
    outer loop
      vertex -2.5 0 30
      vertex -15 -15 30
      vertex -1.76777 -1.76777 30
    endloop
  endfacet
  facet normal 1 0 0
    outer loop
      vertex 15 -14.9178 16.5679
      vertex 15 -15 30
      vertex 15 -14.9178 13.4321
    endloop
  endfacet
  facet normal 1 0 0
    outer loop
      vertex 15 -14.2658 19.6353
      vertex 15 -15 30
      vertex 15 -14.9178 16.5679
    endloop
  endfacet
  facet normal 1 0 0
    outer loop
      vertex 15 -12.9904 22.5
      vertex 15 -15 30
      vertex 15 -14.2658 19.6353
    endloop
  endfacet
  facet normal 1 0 0
    outer loop
      vertex 15 -11.1472 25.037
      vertex 15 -15 30
      vertex 15 -12.9904 22.5
    endloop
  endfacet
  facet normal 1 0 0
    outer loop
      vertex 15 -8.81678 27.1353
      vertex 15 -15 30
      vertex 15 -11.1472 25.037
    endloop
  endfacet
  facet normal 1 0 0
    outer loop
      vertex 15 -6.10105 28.7032
      vertex 15 -15 30
      vertex 15 -8.81678 27.1353
    endloop
  endfacet
  facet normal 1 0 0
    outer loop
      vertex 15 -3.11868 29.6722
      vertex 15 -15 30
      vertex 15 -6.10105 28.7032
    endloop
  endfacet
  facet normal 1 0 0
    outer loop
      vertex 15 -0.496153 29.9479
      vertex 15 -15 30
      vertex 15 -3.11868 29.6722
    endloop
  endfacet
  facet normal 1 -0 0
    outer loop
      vertex 15 -15 30
      vertex 15 -0.496153 29.9479
      vertex 15 0 30
    endloop
  endfacet
  facet normal 1 0 0
    outer loop
      vertex 15 15 30
      vertex 15 14.9178 16.5679
      vertex 15 15 0
    endloop
  endfacet
  facet normal 1 0 0
    outer loop
      vertex 15 15 30
      vertex 15 14.2658 19.6353
      vertex 15 14.9178 16.5679
    endloop
  endfacet
  facet normal 1 0 0
    outer loop
      vertex 15 15 30
      vertex 15 13.1933 22.0442
      vertex 15 14.2658 19.6353
    endloop
  endfacet
  facet normal 1 0 0
    outer loop
      vertex 15 15 30
      vertex 15 12.9904 22.5
      vertex 15 13.1933 22.0442
    endloop
  endfacet
  facet normal 1 0 0
    outer loop
      vertex 15 15 30
      vertex 15 12.6971 22.9036
      vertex 15 12.9904 22.5
    endloop
  endfacet
  facet normal 1 0 0
    outer loop
      vertex 15 15 30
      vertex 15 11.1472 25.037
      vertex 15 12.6971 22.9036
    endloop
  endfacet
  facet normal 1 0 0
    outer loop
      vertex 15 15 30
      vertex 15 8.81678 27.1353
      vertex 15 11.1472 25.037
    endloop
  endfacet
  facet normal 1 0 0
    outer loop
      vertex 15 15 30
      vertex 15 6.10105 28.7032
      vertex 15 8.81678 27.1353
    endloop
  endfacet
  facet normal 1 0 0
    outer loop
      vertex 15 15 30
      vertex 15 3.11868 29.6722
      vertex 15 6.10105 28.7032
    endloop
  endfacet
  facet normal 1 0 0
    outer loop
      vertex 15 15 30
      vertex 15 0.496153 29.9479
      vertex 15 3.11868 29.6722
    endloop
  endfacet
  facet normal 1 0 -0
    outer loop
      vertex 15 0.496153 29.9479
      vertex 15 15 30
      vertex 15 0 30
    endloop
  endfacet
  facet normal 1 -0 0
    outer loop
      vertex 15 14.9178 13.4321
      vertex 15 15 0
      vertex 15 14.9178 16.5679
    endloop
  endfacet
  facet normal 1 -0 0
    outer loop
      vertex 15 14.2658 10.3647
      vertex 15 15 0
      vertex 15 14.9178 13.4321
    endloop
  endfacet
  facet normal 1 -0 0
    outer loop
      vertex 15 14.0629 9.90899
      vertex 15 15 0
      vertex 15 14.2658 10.3647
    endloop
  endfacet
  facet normal 1 -0 0
    outer loop
      vertex 15 12.9904 7.5
      vertex 15 15 0
      vertex 15 14.0629 9.90899
    endloop
  endfacet
  facet normal 1 -0 0
    outer loop
      vertex 15 11.4404 5.36665
      vertex 15 15 0
      vertex 15 12.9904 7.5
    endloop
  endfacet
  facet normal 1 -0 0
    outer loop
      vertex 15 11.1472 4.96304
      vertex 15 15 0
      vertex 15 11.4404 5.36665
    endloop
  endfacet
  facet normal 1 -0 0
    outer loop
      vertex 15 8.81678 2.86474
      vertex 15 15 0
      vertex 15 11.1472 4.96304
    endloop
  endfacet
  facet normal 1 -0 0
    outer loop
      vertex 15 6.10105 1.29682
      vertex 15 15 0
      vertex 15 8.81678 2.86474
    endloop
  endfacet
  facet normal 1 -0 0
    outer loop
      vertex 15 3.11868 0.327785
      vertex 15 15 0
      vertex 15 6.10105 1.29682
    endloop
  endfacet
  facet normal 1 0 0
    outer loop
      vertex 15 15 0
      vertex 15 3.11868 0.327785
      vertex 15 0 0
    endloop
  endfacet
  facet normal 1 0 0
    outer loop
      vertex 15 -3.11868 0.327785
      vertex 15 -15 0
      vertex 15 0 0
    endloop
  endfacet
  facet normal 1 0 0
    outer loop
      vertex 15 -6.10105 1.29682
      vertex 15 -15 0
      vertex 15 -3.11868 0.327785
    endloop
  endfacet
  facet normal 1 0 0
    outer loop
      vertex 15 -8.81678 2.86474
      vertex 15 -15 0
      vertex 15 -6.10105 1.29682
    endloop
  endfacet
  facet normal 1 0 0
    outer loop
      vertex 15 -11.1472 4.96304
      vertex 15 -15 0
      vertex 15 -8.81678 2.86474
    endloop
  endfacet
  facet normal 1 0 0
    outer loop
      vertex 15 -11.4404 5.36665
      vertex 15 -15 0
      vertex 15 -11.1472 4.96304
    endloop
  endfacet
  facet normal 1 0 0
    outer loop
      vertex 15 -12.9904 7.5
      vertex 15 -15 0
      vertex 15 -11.4404 5.36665
    endloop
  endfacet
  facet normal 1 0 0
    outer loop
      vertex 15 -14.0629 9.90899
      vertex 15 -15 0
      vertex 15 -12.9904 7.5
    endloop
  endfacet
  facet normal 1 0 0
    outer loop
      vertex 15 -14.2658 10.3647
      vertex 15 -15 0
      vertex 15 -14.0629 9.90899
    endloop
  endfacet
  facet normal 1 0 0
    outer loop
      vertex 15 -14.9178 13.4321
      vertex 15 -15 0
      vertex 15 -14.2658 10.3647
    endloop
  endfacet
  facet normal 1 0 0
    outer loop
      vertex 15 -15 0
      vertex 15 -14.9178 13.4321
      vertex 15 -15 30
    endloop
  endfacet
  facet normal 0 0 0
    outer loop
      vertex 15 -15 30
      vertex 15 0 30
      vertex 15 15 30
    endloop
  endfacet
  facet normal 0 1 -0
    outer loop
      vertex 15 15 0
      vertex -15 15 30
      vertex 15 15 30
    endloop
  endfacet
  facet normal 0 1 0
    outer loop
      vertex -15 15 30
      vertex 15 15 0
      vertex -15 15 0
    endloop
  endfacet
  facet normal 0 0 -1
    outer loop
      vertex -15 0 0
      vertex 15 0 0
      vertex 15 -15 0
    endloop
  endfacet
  facet normal 0 0 -1
    outer loop
      vertex -15 0 0
      vertex 15 -15 0
      vertex -15 -15 0
    endloop
  endfacet
  facet normal 0 0 -1
    outer loop
      vertex 15 0 0
      vertex -15 0 0
      vertex 15 15 0
    endloop
  endfacet
  facet normal -0 0 -1
    outer loop
      vertex 15 15 0
      vertex -15 0 0
      vertex -15 15 0
    endloop
  endfacet
  facet normal 0 -1 0
    outer loop
      vertex -15 -15 0
      vertex 15 -15 30
      vertex -15 -15 30
    endloop
  endfacet
  facet normal 0 -1 -0
    outer loop
      vertex 15 -15 30
      vertex -15 -15 0
      vertex 15 -15 0
    endloop
  endfacet
  facet normal 1 0 0
    outer loop
      vertex 22 12.9904 22.5
      vertex 22 0 30
      vertex 22 -12.9904 22.5
    endloop
  endfacet
  facet normal -1 0 0
    outer loop
      vertex -22 -3.11868 0.327785
      vertex -22 -12.9904 7.5
      vertex -22 0 0
    endloop
  endfacet
  facet normal 0 -0.5 0.866025
    outer loop
      vertex -22 -6.10105 28.7032
      vertex -15 -8.81678 27.1353
      vertex -15 -6.10105 28.7032
    endloop
  endfacet
  facet normal 0 -0.5 0.866025
    outer loop
      vertex -15 -8.81678 27.1353
      vertex -22 -6.10105 28.7032
      vertex -22 -8.81678 27.1353
    endloop
  endfacet
  facet normal 0 -0.5 0.866025
    outer loop
      vertex 15 -6.10105 28.7032
      vertex 22 -8.81678 27.1353
      vertex 22 -6.10105 28.7032
    endloop
  endfacet
  facet normal 0 -0.5 0.866025
    outer loop
      vertex 22 -8.81678 27.1353
      vertex 15 -6.10105 28.7032
      vertex 15 -8.81678 27.1353
    endloop
  endfacet
  facet normal 0 1 -0
    outer loop
      vertex -15 14.9178 13.4321
      vertex -22 14.9178 16.5679
      vertex -15 14.9178 16.5679
    endloop
  endfacet
  facet normal 0 1 0
    outer loop
      vertex -22 14.9178 16.5679
      vertex -15 14.9178 13.4321
      vertex -22 14.9178 13.4321
    endloop
  endfacet
  facet normal 0 1 -0
    outer loop
      vertex 22 14.9178 13.4321
      vertex 15 14.9178 16.5679
      vertex 22 14.9178 16.5679
    endloop
  endfacet
  facet normal 0 1 0
    outer loop
      vertex 15 14.9178 16.5679
      vertex 22 14.9178 13.4321
      vertex 15 14.9178 13.4321
    endloop
  endfacet
  facet normal -1 0 0
    outer loop
      vertex -22 0 0
      vertex -22 12.9904 7.5
      vertex -22 3.11868 0.327785
    endloop
  endfacet
  facet normal -1 0 0
    outer loop
      vertex -22 8.81678 2.86474
      vertex -22 12.9904 7.5
      vertex -22 11.1472 4.96304
    endloop
  endfacet
  facet normal 0 -0.104528 -0.994522
    outer loop
      vertex 15 -3.11868 0.327785
      vertex 22 0 0
      vertex 22 -3.11868 0.327785
    endloop
  endfacet
  facet normal -0 -0.104528 -0.994522
    outer loop
      vertex 22 0 0
      vertex 15 -3.11868 0.327785
      vertex 15 0 0
    endloop
  endfacet
  facet normal 0 -0.104528 -0.994522
    outer loop
      vertex -22 -3.11868 0.327785
      vertex -15 0 0
      vertex -15 -3.11868 0.327785
    endloop
  endfacet
  facet normal -0 -0.104528 -0.994522
    outer loop
      vertex -15 0 0
      vertex -22 -3.11868 0.327785
      vertex -22 0 0
    endloop
  endfacet
  facet normal 0 -0.978148 0.207912
    outer loop
      vertex -22 -14.9178 16.5679
      vertex -15 -14.2658 19.6353
      vertex -22 -14.2658 19.6353
    endloop
  endfacet
  facet normal 0 -0.978148 0.207912
    outer loop
      vertex -15 -14.2658 19.6353
      vertex -22 -14.9178 16.5679
      vertex -15 -14.9178 16.5679
    endloop
  endfacet
  facet normal 0 -0.978148 0.207912
    outer loop
      vertex 15 -14.9178 16.5679
      vertex 22 -14.2658 19.6353
      vertex 15 -14.2658 19.6353
    endloop
  endfacet
  facet normal 0 -0.978148 0.207912
    outer loop
      vertex 22 -14.2658 19.6353
      vertex 15 -14.9178 16.5679
      vertex 22 -14.9178 16.5679
    endloop
  endfacet
  facet normal 0 0.978148 0.207912
    outer loop
      vertex -15 14.9178 16.5679
      vertex -22 14.2658 19.6353
      vertex -15 14.2658 19.6353
    endloop
  endfacet
  facet normal 0 0.978148 0.207912
    outer loop
      vertex -22 14.2658 19.6353
      vertex -15 14.9178 16.5679
      vertex -22 14.9178 16.5679
    endloop
  endfacet
  facet normal 0 0.978148 0.207912
    outer loop
      vertex 22 14.9178 16.5679
      vertex 15 14.2658 19.6353
      vertex 22 14.2658 19.6353
    endloop
  endfacet
  facet normal 0 0.978148 0.207912
    outer loop
      vertex 15 14.2658 19.6353
      vertex 22 14.9178 16.5679
      vertex 15 14.9178 16.5679
    endloop
  endfacet
  facet normal 1 0 0
    outer loop
      vertex 22 11.1472 25.037
      vertex 22 8.81678 27.1353
      vertex 22 12.9904 22.5
    endloop
  endfacet
  facet normal 0 0.669131 -0.743145
    outer loop
      vertex 15 8.81678 2.86474
      vertex 22 11.1472 4.96304
      vertex 22 8.81678 2.86474
    endloop
  endfacet
  facet normal 0 0.669131 -0.743145
    outer loop
      vertex 22 11.1472 4.96304
      vertex 15 8.81678 2.86474
      vertex 15 11.1472 4.96304
    endloop
  endfacet
  facet normal 0 0.669131 -0.743145
    outer loop
      vertex -22 8.81678 2.86474
      vertex -15 11.1472 4.96304
      vertex -15 8.81678 2.86474
    endloop
  endfacet
  facet normal 0 0.669131 -0.743145
    outer loop
      vertex -15 11.1472 4.96304
      vertex -22 8.81678 2.86474
      vertex -22 11.1472 4.96304
    endloop
  endfacet
  facet normal 0 0.309017 -0.951057
    outer loop
      vertex -22 3.11868 0.327785
      vertex -15 6.10105 1.29682
      vertex -15 3.11868 0.327785
    endloop
  endfacet
  facet normal 0 0.309017 -0.951057
    outer loop
      vertex -15 6.10105 1.29682
      vertex -22 3.11868 0.327785
      vertex -22 6.10105 1.29682
    endloop
  endfacet
  facet normal 0 0.309017 -0.951057
    outer loop
      vertex 15 3.11868 0.327785
      vertex 22 6.10105 1.29682
      vertex 22 3.11868 0.327785
    endloop
  endfacet
  facet normal 0 0.309017 -0.951057
    outer loop
      vertex 22 6.10105 1.29682
      vertex 15 3.11868 0.327785
      vertex 15 6.10105 1.29682
    endloop
  endfacet
  facet normal 0 0.913545 -0.406737
    outer loop
      vertex -15 13.1933 7.95575
      vertex -22 14.2658 10.3647
      vertex -15 14.2658 10.3647
    endloop
  endfacet
  facet normal -8.81578e-09 0.913545 -0.406737
    outer loop
      vertex -22 14.2658 10.3647
      vertex -15 13.1933 7.95575
      vertex -22 12.9904 7.5
    endloop
  endfacet
  facet normal 0 0.913546 -0.406736
    outer loop
      vertex 22 14.2658 10.3647
      vertex 15 14.0629 9.90899
      vertex 15 14.2658 10.3647
    endloop
  endfacet
  facet normal 0 0.978148 -0.207912
    outer loop
      vertex -15 14.2658 10.3647
      vertex -22 14.9178 13.4321
      vertex -15 14.9178 13.4321
    endloop
  endfacet
  facet normal 0 0.978148 -0.207912
    outer loop
      vertex -22 14.9178 13.4321
      vertex -15 14.2658 10.3647
      vertex -22 14.2658 10.3647
    endloop
  endfacet
  facet normal 0 0.978148 -0.207912
    outer loop
      vertex 22 14.2658 10.3647
      vertex 15 14.9178 13.4321
      vertex 22 14.9178 13.4321
    endloop
  endfacet
  facet normal 0 0.978148 -0.207912
    outer loop
      vertex 15 14.9178 13.4321
      vertex 22 14.2658 10.3647
      vertex 15 14.2658 10.3647
    endloop
  endfacet
  facet normal -1 0 0
    outer loop
      vertex -22 -6.10105 1.29682
      vertex -22 -12.9904 7.5
      vertex -22 -3.11868 0.327785
    endloop
  endfacet
  facet normal -1 0 0
    outer loop
      vertex -22 0 0
      vertex -22 -12.9904 7.5
      vertex -22 12.9904 7.5
    endloop
  endfacet
  facet normal -1.00752e-08 0.913545 0.406737
    outer loop
      vertex 22 14.2658 19.6353
      vertex 15 13.1933 22.0442
      vertex 22 12.9904 22.5
    endloop
  endfacet
  facet normal 0 0.913545 0.406737
    outer loop
      vertex 15 13.1933 22.0442
      vertex 22 14.2658 19.6353
      vertex 15 14.2658 19.6353
    endloop
  endfacet
  facet normal 0 0.913546 0.406736
    outer loop
      vertex -15 14.2658 19.6353
      vertex -22 14.2658 19.6353
      vertex -15 14.0629 20.091
    endloop
  endfacet
  facet normal 1 0 0
    outer loop
      vertex 22 -6.10105 28.7032
      vertex 22 -8.81678 27.1353
      vertex 22 -12.9904 22.5
    endloop
  endfacet
  facet normal 1 0 0
    outer loop
      vertex 22 0 30
      vertex 22 -3.11868 29.6722
      vertex 22 -12.9904 22.5
    endloop
  endfacet
  facet normal 1 0 0
    outer loop
      vertex 22 6.10105 28.7032
      vertex 22 3.11868 29.6722
      vertex 22 12.9904 22.5
    endloop
  endfacet
  facet normal -1 0 0
    outer loop
      vertex -22 3.11868 0.327785
      vertex -22 12.9904 7.5
      vertex -22 6.10105 1.29682
    endloop
  endfacet
  facet normal -1 0 0
    outer loop
      vertex -22 6.10105 1.29682
      vertex -22 12.9904 7.5
      vertex -22 8.81678 2.86474
    endloop
  endfacet
  facet normal 0 0.809017 -0.587785
    outer loop
      vertex 22 11.1472 4.96304
      vertex 15 11.1472 4.96304
      vertex 15 11.4404 5.36665
    endloop
  endfacet
  facet normal 0 0.809017 -0.587785
    outer loop
      vertex -22 11.1472 4.96304
      vertex -15 12.6971 7.09639
      vertex -15 11.1472 4.96304
    endloop
  endfacet
  facet normal 1.45599e-08 0.809017 -0.587785
    outer loop
      vertex -15 12.6971 7.09639
      vertex -22 11.1472 4.96304
      vertex -22 12.9904 7.5
    endloop
  endfacet
  facet normal 0 0.5 -0.866025
    outer loop
      vertex 15 6.10105 1.29682
      vertex 22 8.81678 2.86474
      vertex 22 6.10105 1.29682
    endloop
  endfacet
  facet normal 0 0.5 -0.866025
    outer loop
      vertex 22 8.81678 2.86474
      vertex 15 6.10105 1.29682
      vertex 15 8.81678 2.86474
    endloop
  endfacet
  facet normal 0 0.5 -0.866025
    outer loop
      vertex -22 6.10105 1.29682
      vertex -15 8.81678 2.86474
      vertex -15 6.10105 1.29682
    endloop
  endfacet
  facet normal 0 0.5 -0.866025
    outer loop
      vertex -15 8.81678 2.86474
      vertex -22 6.10105 1.29682
      vertex -22 8.81678 2.86474
    endloop
  endfacet
  facet normal 0 0.809017 -0.587785
    outer loop
      vertex 22 12.9904 7.5
      vertex 15 11.4404 5.36665
      vertex 15 12.9904 7.5
    endloop
  endfacet
  facet normal 2.72998e-08 0.809017 -0.587785
    outer loop
      vertex 15 11.4404 5.36665
      vertex 22 12.9904 7.5
      vertex 22 11.1472 4.96304
    endloop
  endfacet
  facet normal 0 0.809017 -0.587785
    outer loop
      vertex -15 12.6971 7.09639
      vertex -22 12.9904 7.5
      vertex -15 12.9904 7.5
    endloop
  endfacet
  facet normal 0 0.913545 -0.406737
    outer loop
      vertex -15 12.9904 7.5
      vertex -22 12.9904 7.5
      vertex -15 13.1933 7.95575
    endloop
  endfacet
  facet normal 2.77067e-08 0.913545 -0.406737
    outer loop
      vertex 22 12.9904 7.5
      vertex 15 14.0629 9.90899
      vertex 22 14.2658 10.3647
    endloop
  endfacet
  facet normal 0 0.913545 -0.406737
    outer loop
      vertex 15 14.0629 9.90899
      vertex 22 12.9904 7.5
      vertex 15 12.9904 7.5
    endloop
  endfacet
  facet normal 0 0.104528 -0.994522
    outer loop
      vertex -22 0 0
      vertex -15 3.11868 0.327785
      vertex -15 0 0
    endloop
  endfacet
  facet normal 0 0.104528 -0.994522
    outer loop
      vertex -15 3.11868 0.327785
      vertex -22 0 0
      vertex -22 3.11868 0.327785
    endloop
  endfacet
  facet normal 0 0.104528 -0.994522
    outer loop
      vertex 15 0 0
      vertex 22 3.11868 0.327785
      vertex 22 0 0
    endloop
  endfacet
  facet normal 0 0.104528 -0.994522
    outer loop
      vertex 22 3.11868 0.327785
      vertex 15 0 0
      vertex 15 3.11868 0.327785
    endloop
  endfacet
  facet normal 0 -0.913545 0.406737
    outer loop
      vertex 15 -14.2658 19.6353
      vertex 22 -12.9904 22.5
      vertex 15 -12.9904 22.5
    endloop
  endfacet
  facet normal 0 -0.913545 0.406737
    outer loop
      vertex 22 -12.9904 22.5
      vertex 15 -14.2658 19.6353
      vertex 22 -14.2658 19.6353
    endloop
  endfacet
  facet normal 0 -0.913545 0.406737
    outer loop
      vertex -22 -14.2658 19.6353
      vertex -15 -12.9904 22.5
      vertex -22 -12.9904 22.5
    endloop
  endfacet
  facet normal 0 -0.913545 0.406737
    outer loop
      vertex -15 -12.9904 22.5
      vertex -22 -14.2658 19.6353
      vertex -15 -14.2658 19.6353
    endloop
  endfacet
  facet normal 0 -0.913545 -0.406737
    outer loop
      vertex -15 -13.1933 7.95575
      vertex -22 -12.9904 7.5
      vertex -15 -12.9904 7.5
    endloop
  endfacet
  facet normal -0 -0.913545 -0.406737
    outer loop
      vertex 22 -12.9904 7.5
      vertex 15 -14.0629 9.90899
      vertex 15 -12.9904 7.5
    endloop
  endfacet
  facet normal 2.77067e-08 -0.913545 -0.406737
    outer loop
      vertex 15 -14.0629 9.90899
      vertex 22 -12.9904 7.5
      vertex 22 -14.2658 10.3647
    endloop
  endfacet
  facet normal -0 -0.809017 -0.587785
    outer loop
      vertex -15 -12.9904 7.5
      vertex -22 -12.9904 7.5
      vertex -15 -12.6971 7.09639
    endloop
  endfacet
  facet normal 0 -0.809017 -0.587785
    outer loop
      vertex 15 -11.4404 5.36665
      vertex 22 -12.9904 7.5
      vertex 15 -12.9904 7.5
    endloop
  endfacet
  facet normal 2.72998e-08 -0.809017 -0.587785
    outer loop
      vertex 22 -12.9904 7.5
      vertex 15 -11.4404 5.36665
      vertex 22 -11.1472 4.96304
    endloop
  endfacet
  facet normal 1.45599e-08 -0.809017 -0.587785
    outer loop
      vertex -22 -11.1472 4.96304
      vertex -15 -12.6971 7.09639
      vertex -22 -12.9904 7.5
    endloop
  endfacet
  facet normal 0 -0.809017 -0.587785
    outer loop
      vertex -15 -12.6971 7.09639
      vertex -22 -11.1472 4.96304
      vertex -15 -11.1472 4.96304
    endloop
  endfacet
  facet normal -0 -0.809017 -0.587785
    outer loop
      vertex 22 -11.1472 4.96304
      vertex 15 -11.4404 5.36665
      vertex 15 -11.1472 4.96304
    endloop
  endfacet
  facet normal -1 0 0
    outer loop
      vertex -22 -8.81678 2.86474
      vertex -22 -12.9904 7.5
      vertex -22 -6.10105 1.29682
    endloop
  endfacet
  facet normal 0 -0.5 -0.866025
    outer loop
      vertex 15 -8.81678 2.86474
      vertex 22 -6.10105 1.29682
      vertex 22 -8.81678 2.86474
    endloop
  endfacet
  facet normal -0 -0.5 -0.866025
    outer loop
      vertex 22 -6.10105 1.29682
      vertex 15 -8.81678 2.86474
      vertex 15 -6.10105 1.29682
    endloop
  endfacet
  facet normal 0 -0.5 -0.866025
    outer loop
      vertex -22 -8.81678 2.86474
      vertex -15 -6.10105 1.29682
      vertex -15 -8.81678 2.86474
    endloop
  endfacet
  facet normal -0 -0.5 -0.866025
    outer loop
      vertex -15 -6.10105 1.29682
      vertex -22 -8.81678 2.86474
      vertex -22 -6.10105 1.29682
    endloop
  endfacet
  facet normal -0 0.5 0.866025
    outer loop
      vertex 15 8.81678 27.1353
      vertex 22 6.10105 28.7032
      vertex 22 8.81678 27.1353
    endloop
  endfacet
  facet normal 0 0.5 0.866025
    outer loop
      vertex 22 6.10105 28.7032
      vertex 15 8.81678 27.1353
      vertex 15 6.10105 28.7032
    endloop
  endfacet
  facet normal -0 0.5 0.866025
    outer loop
      vertex -22 8.81678 27.1353
      vertex -15 6.10105 28.7032
      vertex -15 8.81678 27.1353
    endloop
  endfacet
  facet normal 0 0.5 0.866025
    outer loop
      vertex -15 6.10105 28.7032
      vertex -22 8.81678 27.1353
      vertex -22 6.10105 28.7032
    endloop
  endfacet
  facet normal 0 0.809017 0.587785
    outer loop
      vertex 22 11.1472 25.037
      vertex 15 12.6971 22.9036
      vertex 15 11.1472 25.037
    endloop
  endfacet
  facet normal -5.45996e-08 0.809017 0.587785
    outer loop
      vertex 15 12.6971 22.9036
      vertex 22 11.1472 25.037
      vertex 22 12.9904 22.5
    endloop
  endfacet
  facet normal 0 0.809017 0.587786
    outer loop
      vertex -15 11.4404 24.6334
      vertex -22 11.1472 25.037
      vertex -15 11.1472 25.037
    endloop
  endfacet
  facet normal 1 0 0
    outer loop
      vertex 22 -8.81678 27.1353
      vertex 22 -11.1472 25.037
      vertex 22 -12.9904 22.5
    endloop
  endfacet
  facet normal 1.09968e-07 -0.104528 0.994522
    outer loop
      vertex 15 -0.496153 29.9479
      vertex 22 -3.11868 29.6722
      vertex 22 0 30
    endloop
  endfacet
  facet normal 0 -0.104529 0.994522
    outer loop
      vertex 22 -3.11868 29.6722
      vertex 15 -0.496153 29.9479
      vertex 15 -3.11868 29.6722
    endloop
  endfacet
  facet normal 0 -0.104527 0.994522
    outer loop
      vertex -15 -2.62252 29.7244
      vertex -22 -3.11868 29.6722
      vertex -15 -3.11868 29.6722
    endloop
  endfacet
  facet normal 1 0 0
    outer loop
      vertex 22 -3.11868 29.6722
      vertex 22 -6.10105 28.7032
      vertex 22 -12.9904 22.5
    endloop
  endfacet
  facet normal 1 0 0
    outer loop
      vertex 22 8.81678 27.1353
      vertex 22 6.10105 28.7032
      vertex 22 12.9904 22.5
    endloop
  endfacet
  facet normal 0 -0.104527 0.994522
    outer loop
      vertex 15 0 30
      vertex 15 -0.496153 29.9479
      vertex 22 0 30
    endloop
  endfacet
  facet normal 0 -0.104529 0.994522
    outer loop
      vertex -22 0 30
      vertex -15 -2.62252 29.7244
      vertex -15 0 30
    endloop
  endfacet
  facet normal 1.10858e-07 -0.104528 0.994522
    outer loop
      vertex -15 -2.62252 29.7244
      vertex -22 0 30
      vertex -22 -3.11868 29.6722
    endloop
  endfacet
  facet normal 1 0 0
    outer loop
      vertex 22 3.11868 29.6722
      vertex 22 0 30
      vertex 22 12.9904 22.5
    endloop
  endfacet
  facet normal 0 -0.309017 -0.951057
    outer loop
      vertex -22 -6.10105 1.29682
      vertex -15 -3.11868 0.327785
      vertex -15 -6.10105 1.29682
    endloop
  endfacet
  facet normal -0 -0.309017 -0.951057
    outer loop
      vertex -15 -3.11868 0.327785
      vertex -22 -6.10105 1.29682
      vertex -22 -3.11868 0.327785
    endloop
  endfacet
  facet normal 0 -0.309017 -0.951057
    outer loop
      vertex 15 -6.10105 1.29682
      vertex 22 -3.11868 0.327785
      vertex 22 -6.10105 1.29682
    endloop
  endfacet
  facet normal -0 -0.309017 -0.951057
    outer loop
      vertex 22 -3.11868 0.327785
      vertex 15 -6.10105 1.29682
      vertex 15 -3.11868 0.327785
    endloop
  endfacet
  facet normal -1 0 0
    outer loop
      vertex -22 -11.1472 4.96304
      vertex -22 -12.9904 7.5
      vertex -22 -8.81678 2.86474
    endloop
  endfacet
  facet normal 0 -0.669131 -0.743145
    outer loop
      vertex 15 -11.1472 4.96304
      vertex 22 -8.81678 2.86474
      vertex 22 -11.1472 4.96304
    endloop
  endfacet
  facet normal -0 -0.669131 -0.743145
    outer loop
      vertex 22 -8.81678 2.86474
      vertex 15 -11.1472 4.96304
      vertex 15 -8.81678 2.86474
    endloop
  endfacet
  facet normal 0 -0.669131 -0.743145
    outer loop
      vertex -22 -11.1472 4.96304
      vertex -15 -8.81678 2.86474
      vertex -15 -11.1472 4.96304
    endloop
  endfacet
  facet normal -0 -0.669131 -0.743145
    outer loop
      vertex -15 -8.81678 2.86474
      vertex -22 -11.1472 4.96304
      vertex -22 -8.81678 2.86474
    endloop
  endfacet
  facet normal 0 -0.309017 0.951057
    outer loop
      vertex -22 -3.11868 29.6722
      vertex -15 -6.10105 28.7032
      vertex -15 -3.11868 29.6722
    endloop
  endfacet
  facet normal 0 -0.309017 0.951057
    outer loop
      vertex -15 -6.10105 28.7032
      vertex -22 -3.11868 29.6722
      vertex -22 -6.10105 28.7032
    endloop
  endfacet
  facet normal 0 -0.309017 0.951057
    outer loop
      vertex 15 -3.11868 29.6722
      vertex 22 -6.10105 28.7032
      vertex 22 -3.11868 29.6722
    endloop
  endfacet
  facet normal 0 -0.309017 0.951057
    outer loop
      vertex 22 -6.10105 28.7032
      vertex 15 -3.11868 29.6722
      vertex 15 -6.10105 28.7032
    endloop
  endfacet
  facet normal 0 0.104529 0.994522
    outer loop
      vertex 15 0.496153 29.9479
      vertex 22 3.11868 29.6722
      vertex 15 3.11868 29.6722
    endloop
  endfacet
  facet normal 1.09968e-07 0.104528 0.994522
    outer loop
      vertex 22 3.11868 29.6722
      vertex 15 0.496153 29.9479
      vertex 22 0 30
    endloop
  endfacet
  facet normal 0 0.104527 0.994522
    outer loop
      vertex -15 3.11868 29.6722
      vertex -22 3.11868 29.6722
      vertex -15 2.62252 29.7244
    endloop
  endfacet
  facet normal -0 0.309017 0.951057
    outer loop
      vertex -22 6.10105 28.7032
      vertex -15 3.11868 29.6722
      vertex -15 6.10105 28.7032
    endloop
  endfacet
  facet normal 0 0.309017 0.951057
    outer loop
      vertex -15 3.11868 29.6722
      vertex -22 6.10105 28.7032
      vertex -22 3.11868 29.6722
    endloop
  endfacet
  facet normal -0 0.309017 0.951057
    outer loop
      vertex 15 6.10105 28.7032
      vertex 22 3.11868 29.6722
      vertex 22 6.10105 28.7032
    endloop
  endfacet
  facet normal 0 0.309017 0.951057
    outer loop
      vertex 22 3.11868 29.6722
      vertex 15 6.10105 28.7032
      vertex 15 3.11868 29.6722
    endloop
  endfacet
  facet normal 0 0.913546 0.406736
    outer loop
      vertex 15 13.1933 22.0442
      vertex 15 12.9904 22.5
      vertex 22 12.9904 22.5
    endloop
  endfacet
  facet normal 0 0.913545 0.406737
    outer loop
      vertex -15 14.0629 20.091
      vertex -22 12.9904 22.5
      vertex -15 12.9904 22.5
    endloop
  endfacet
  facet normal -1.00752e-08 0.913545 0.406737
    outer loop
      vertex -22 12.9904 22.5
      vertex -15 14.0629 20.091
      vertex -22 14.2658 19.6353
    endloop
  endfacet
  facet normal 0 -0.66913 0.743145
    outer loop
      vertex -22 -8.81678 27.1353
      vertex -15 -11.1472 25.037
      vertex -15 -8.81678 27.1353
    endloop
  endfacet
  facet normal 0 -0.66913 0.743145
    outer loop
      vertex -15 -11.1472 25.037
      vertex -22 -8.81678 27.1353
      vertex -22 -11.1472 25.037
    endloop
  endfacet
  facet normal 0 -0.66913 0.743145
    outer loop
      vertex 15 -8.81678 27.1353
      vertex 22 -11.1472 25.037
      vertex 22 -8.81678 27.1353
    endloop
  endfacet
  facet normal 0 -0.66913 0.743145
    outer loop
      vertex 22 -11.1472 25.037
      vertex 15 -8.81678 27.1353
      vertex 15 -11.1472 25.037
    endloop
  endfacet
  facet normal -0 0.66913 0.743145
    outer loop
      vertex 15 11.1472 25.037
      vertex 22 8.81678 27.1353
      vertex 22 11.1472 25.037
    endloop
  endfacet
  facet normal 0 0.66913 0.743145
    outer loop
      vertex 22 8.81678 27.1353
      vertex 15 11.1472 25.037
      vertex 15 8.81678 27.1353
    endloop
  endfacet
  facet normal -0 0.66913 0.743145
    outer loop
      vertex -22 11.1472 25.037
      vertex -15 8.81678 27.1353
      vertex -15 11.1472 25.037
    endloop
  endfacet
  facet normal 0 0.66913 0.743145
    outer loop
      vertex -15 8.81678 27.1353
      vertex -22 11.1472 25.037
      vertex -22 8.81678 27.1353
    endloop
  endfacet
  facet normal 0 -1 0
    outer loop
      vertex 15 -14.9178 13.4321
      vertex 22 -14.9178 16.5679
      vertex 15 -14.9178 16.5679
    endloop
  endfacet
  facet normal 0 -1 -0
    outer loop
      vertex 22 -14.9178 16.5679
      vertex 15 -14.9178 13.4321
      vertex 22 -14.9178 13.4321
    endloop
  endfacet
  facet normal 0 -1 0
    outer loop
      vertex -22 -14.9178 13.4321
      vertex -15 -14.9178 16.5679
      vertex -22 -14.9178 16.5679
    endloop
  endfacet
  facet normal 0 -1 -0
    outer loop
      vertex -15 -14.9178 16.5679
      vertex -22 -14.9178 13.4321
      vertex -15 -14.9178 13.4321
    endloop
  endfacet
  facet normal -1 0 0
    outer loop
      vertex -22 14.2658 10.3647
      vertex -22 14.9178 16.5679
      vertex -22 14.9178 13.4321
    endloop
  endfacet
  facet normal -1 0 0
    outer loop
      vertex -22 14.2658 10.3647
      vertex -22 14.2658 19.6353
      vertex -22 14.9178 16.5679
    endloop
  endfacet
  facet normal -1 0 0
    outer loop
      vertex -22 12.9904 7.5
      vertex -22 14.2658 19.6353
      vertex -22 14.2658 10.3647
    endloop
  endfacet
  facet normal -1 0 0
    outer loop
      vertex -22 12.9904 7.5
      vertex -22 12.9904 22.5
      vertex -22 14.2658 19.6353
    endloop
  endfacet
  facet normal -1 0 0
    outer loop
      vertex -22 12.9904 7.5
      vertex -22 11.1472 25.037
      vertex -22 12.9904 22.5
    endloop
  endfacet
  facet normal -1 0 0
    outer loop
      vertex -22 12.9904 7.5
      vertex -22 8.81678 27.1353
      vertex -22 11.1472 25.037
    endloop
  endfacet
  facet normal -1 0 0
    outer loop
      vertex -22 12.9904 7.5
      vertex -22 6.10105 28.7032
      vertex -22 8.81678 27.1353
    endloop
  endfacet
  facet normal -1 0 0
    outer loop
      vertex -22 12.9904 7.5
      vertex -22 3.11868 29.6722
      vertex -22 6.10105 28.7032
    endloop
  endfacet
  facet normal -1 0 0
    outer loop
      vertex -22 12.9904 7.5
      vertex -22 0 30
      vertex -22 3.11868 29.6722
    endloop
  endfacet
  facet normal -1 0 0
    outer loop
      vertex -22 12.9904 7.5
      vertex -22 -3.11868 29.6722
      vertex -22 0 30
    endloop
  endfacet
  facet normal -1 0 0
    outer loop
      vertex -22 12.9904 7.5
      vertex -22 -6.10105 28.7032
      vertex -22 -3.11868 29.6722
    endloop
  endfacet
  facet normal -1 0 0
    outer loop
      vertex -22 12.9904 7.5
      vertex -22 -8.81678 27.1353
      vertex -22 -6.10105 28.7032
    endloop
  endfacet
  facet normal -1 0 0
    outer loop
      vertex -22 12.9904 7.5
      vertex -22 -11.1472 25.037
      vertex -22 -8.81678 27.1353
    endloop
  endfacet
  facet normal -1 0 0
    outer loop
      vertex -22 -12.9904 7.5
      vertex -22 -11.1472 25.037
      vertex -22 12.9904 7.5
    endloop
  endfacet
  facet normal -1 0 0
    outer loop
      vertex -22 -12.9904 7.5
      vertex -22 -12.9904 22.5
      vertex -22 -11.1472 25.037
    endloop
  endfacet
  facet normal -1 0 0
    outer loop
      vertex -22 -14.2658 10.3647
      vertex -22 -12.9904 22.5
      vertex -22 -12.9904 7.5
    endloop
  endfacet
  facet normal -1 0 0
    outer loop
      vertex -22 -14.2658 10.3647
      vertex -22 -14.2658 19.6353
      vertex -22 -12.9904 22.5
    endloop
  endfacet
  facet normal -1 0 0
    outer loop
      vertex -22 -14.9178 13.4321
      vertex -22 -14.2658 19.6353
      vertex -22 -14.2658 10.3647
    endloop
  endfacet
  facet normal -1 0 0
    outer loop
      vertex -22 -14.2658 19.6353
      vertex -22 -14.9178 13.4321
      vertex -22 -14.9178 16.5679
    endloop
  endfacet
  facet normal 0 -0.913545 -0.406737
    outer loop
      vertex -22 -14.2658 10.3647
      vertex -15 -13.1933 7.95575
      vertex -15 -14.2658 10.3647
    endloop
  endfacet
  facet normal -8.81578e-09 -0.913545 -0.406737
    outer loop
      vertex -15 -13.1933 7.95575
      vertex -22 -14.2658 10.3647
      vertex -22 -12.9904 7.5
    endloop
  endfacet
  facet normal -0 -0.913546 -0.406736
    outer loop
      vertex 22 -14.2658 10.3647
      vertex 15 -14.2658 10.3647
      vertex 15 -14.0629 9.90899
    endloop
  endfacet
  facet normal 0 -0.978148 -0.207912
    outer loop
      vertex -22 -14.2658 10.3647
      vertex -15 -14.9178 13.4321
      vertex -22 -14.9178 13.4321
    endloop
  endfacet
  facet normal 0 -0.978148 -0.207912
    outer loop
      vertex -15 -14.9178 13.4321
      vertex -22 -14.2658 10.3647
      vertex -15 -14.2658 10.3647
    endloop
  endfacet
  facet normal 0 -0.978148 -0.207912
    outer loop
      vertex 15 -14.2658 10.3647
      vertex 22 -14.9178 13.4321
      vertex 15 -14.9178 13.4321
    endloop
  endfacet
  facet normal 0 -0.978148 -0.207912
    outer loop
      vertex 22 -14.9178 13.4321
      vertex 15 -14.2658 10.3647
      vertex 22 -14.2658 10.3647
    endloop
  endfacet
  facet normal 1 0 0
    outer loop
      vertex 22 14.2658 19.6353
      vertex 22 14.9178 13.4321
      vertex 22 14.9178 16.5679
    endloop
  endfacet
  facet normal 1 0 0
    outer loop
      vertex 22 14.2658 19.6353
      vertex 22 14.2658 10.3647
      vertex 22 14.9178 13.4321
    endloop
  endfacet
  facet normal 1 0 0
    outer loop
      vertex 22 12.9904 22.5
      vertex 22 14.2658 10.3647
      vertex 22 14.2658 19.6353
    endloop
  endfacet
  facet normal 1 0 0
    outer loop
      vertex 22 12.9904 22.5
      vertex 22 12.9904 7.5
      vertex 22 14.2658 10.3647
    endloop
  endfacet
  facet normal 1 0 0
    outer loop
      vertex 22 12.9904 22.5
      vertex 22 11.1472 4.96304
      vertex 22 12.9904 7.5
    endloop
  endfacet
  facet normal 1 0 0
    outer loop
      vertex 22 12.9904 22.5
      vertex 22 8.81678 2.86474
      vertex 22 11.1472 4.96304
    endloop
  endfacet
  facet normal 1 0 0
    outer loop
      vertex 22 12.9904 22.5
      vertex 22 6.10105 1.29682
      vertex 22 8.81678 2.86474
    endloop
  endfacet
  facet normal 1 0 0
    outer loop
      vertex 22 12.9904 22.5
      vertex 22 3.11868 0.327785
      vertex 22 6.10105 1.29682
    endloop
  endfacet
  facet normal 1 0 0
    outer loop
      vertex 22 12.9904 22.5
      vertex 22 0 0
      vertex 22 3.11868 0.327785
    endloop
  endfacet
  facet normal 1 0 0
    outer loop
      vertex 22 12.9904 22.5
      vertex 22 -3.11868 0.327785
      vertex 22 0 0
    endloop
  endfacet
  facet normal 1 0 0
    outer loop
      vertex 22 12.9904 22.5
      vertex 22 -6.10105 1.29682
      vertex 22 -3.11868 0.327785
    endloop
  endfacet
  facet normal 1 0 0
    outer loop
      vertex 22 12.9904 22.5
      vertex 22 -8.81678 2.86474
      vertex 22 -6.10105 1.29682
    endloop
  endfacet
  facet normal 1 0 0
    outer loop
      vertex 22 12.9904 22.5
      vertex 22 -11.1472 4.96304
      vertex 22 -8.81678 2.86474
    endloop
  endfacet
  facet normal 1 -0 0
    outer loop
      vertex 22 -12.9904 22.5
      vertex 22 -11.1472 4.96304
      vertex 22 12.9904 22.5
    endloop
  endfacet
  facet normal 1 0 0
    outer loop
      vertex 22 -12.9904 22.5
      vertex 22 -12.9904 7.5
      vertex 22 -11.1472 4.96304
    endloop
  endfacet
  facet normal 1 -0 0
    outer loop
      vertex 22 -14.2658 19.6353
      vertex 22 -12.9904 7.5
      vertex 22 -12.9904 22.5
    endloop
  endfacet
  facet normal 1 0 0
    outer loop
      vertex 22 -14.2658 19.6353
      vertex 22 -14.2658 10.3647
      vertex 22 -12.9904 7.5
    endloop
  endfacet
  facet normal 1 -0 0
    outer loop
      vertex 22 -14.9178 16.5679
      vertex 22 -14.2658 10.3647
      vertex 22 -14.2658 19.6353
    endloop
  endfacet
  facet normal 1 0 0
    outer loop
      vertex 22 -14.2658 10.3647
      vertex 22 -14.9178 16.5679
      vertex 22 -14.9178 13.4321
    endloop
  endfacet
  facet normal 0 0.104527 0.994522
    outer loop
      vertex 15 0.496153 29.9479
      vertex 15 0 30
      vertex 22 0 30
    endloop
  endfacet
  facet normal 1.10858e-07 0.104528 0.994522
    outer loop
      vertex -22 0 30
      vertex -15 2.62252 29.7244
      vertex -22 3.11868 29.6722
    endloop
  endfacet
  facet normal 0 0.104529 0.994522
    outer loop
      vertex -15 2.62252 29.7244
      vertex -22 0 30
      vertex -15 0 30
    endloop
  endfacet
  facet normal -0 0.809017 0.587786
    outer loop
      vertex 15 12.9904 22.5
      vertex 15 12.6971 22.9036
      vertex 22 12.9904 22.5
    endloop
  endfacet
  facet normal -0 0.809017 0.587785
    outer loop
      vertex -22 12.9904 22.5
      vertex -15 11.4404 24.6334
      vertex -15 12.9904 22.5
    endloop
  endfacet
  facet normal -5.45996e-08 0.809017 0.587785
    outer loop
      vertex -15 11.4404 24.6334
      vertex -22 12.9904 22.5
      vertex -22 11.1472 25.037
    endloop
  endfacet
  facet normal 0 -0.809017 0.587785
    outer loop
      vertex 15 -12.9904 22.5
      vertex 22 -11.1472 25.037
      vertex 15 -11.1472 25.037
    endloop
  endfacet
  facet normal 0 -0.809017 0.587785
    outer loop
      vertex 22 -11.1472 25.037
      vertex 15 -12.9904 22.5
      vertex 22 -12.9904 22.5
    endloop
  endfacet
  facet normal 0 -0.809017 0.587785
    outer loop
      vertex -22 -12.9904 22.5
      vertex -15 -11.1472 25.037
      vertex -22 -11.1472 25.037
    endloop
  endfacet
  facet normal 0 -0.809017 0.587785
    outer loop
      vertex -15 -11.1472 25.037
      vertex -22 -12.9904 22.5
      vertex -15 -12.9904 22.5
    endloop
  endfacet
  facet normal -0.92388 -0.382683 0
    outer loop
      vertex 2.5 0 25
      vertex 1.76777 1.76777 30
      vertex 1.76777 1.76777 25
    endloop
  endfacet
  facet normal -0.92388 -0.382683 0
    outer loop
      vertex 1.76777 1.76777 30
      vertex 2.5 0 25
      vertex 2.5 0 30
    endloop
  endfacet
  facet normal 0.92388 -0.382683 0
    outer loop
      vertex -2.5 0 30
      vertex -1.76777 1.76777 25
      vertex -1.76777 1.76777 30
    endloop
  endfacet
  facet normal 0.92388 -0.382683 0
    outer loop
      vertex -1.76777 1.76777 25
      vertex -2.5 0 30
      vertex -2.5 0 25
    endloop
  endfacet
  facet normal -0.382683 -0.92388 0
    outer loop
      vertex 0 2.5 25
      vertex 1.76777 1.76777 30
      vertex 0 2.5 30
    endloop
  endfacet
  facet normal -0.382683 -0.92388 -0
    outer loop
      vertex 1.76777 1.76777 30
      vertex 0 2.5 25
      vertex 1.76777 1.76777 25
    endloop
  endfacet
  facet normal 0 0 1
    outer loop
      vertex 1.76777 1.76777 25
      vertex 1.76777 -1.76777 25
      vertex 2.5 0 25
    endloop
  endfacet
  facet normal 0 0 1
    outer loop
      vertex 0 2.5 25
      vertex 1.76777 -1.76777 25
      vertex 1.76777 1.76777 25
    endloop
  endfacet
  facet normal 0 0 1
    outer loop
      vertex 0 2.5 25
      vertex 0 -2.5 25
      vertex 1.76777 -1.76777 25
    endloop
  endfacet
  facet normal -0 0 1
    outer loop
      vertex -1.76777 1.76777 25
      vertex 0 -2.5 25
      vertex 0 2.5 25
    endloop
  endfacet
  facet normal 0 0 1
    outer loop
      vertex -1.76777 1.76777 25
      vertex -1.76777 -1.76777 25
      vertex 0 -2.5 25
    endloop
  endfacet
  facet normal 0 -0 1
    outer loop
      vertex -1.76777 -1.76777 25
      vertex -1.76777 1.76777 25
      vertex -2.5 0 25
    endloop
  endfacet
  facet normal 0.382683 -0.92388 0
    outer loop
      vertex -1.76777 1.76777 25
      vertex 0 2.5 30
      vertex -1.76777 1.76777 30
    endloop
  endfacet
  facet normal 0.382683 -0.92388 0
    outer loop
      vertex 0 2.5 30
      vertex -1.76777 1.76777 25
      vertex 0 2.5 25
    endloop
  endfacet
  facet normal -0.382683 0.92388 0
    outer loop
      vertex 1.76777 -1.76777 25
      vertex 0 -2.5 30
      vertex 1.76777 -1.76777 30
    endloop
  endfacet
  facet normal -0.382683 0.92388 0
    outer loop
      vertex 0 -2.5 30
      vertex 1.76777 -1.76777 25
      vertex 0 -2.5 25
    endloop
  endfacet
  facet normal 0.92388 0.382683 0
    outer loop
      vertex -1.76777 -1.76777 30
      vertex -2.5 0 25
      vertex -2.5 0 30
    endloop
  endfacet
  facet normal 0.92388 0.382683 0
    outer loop
      vertex -2.5 0 25
      vertex -1.76777 -1.76777 30
      vertex -1.76777 -1.76777 25
    endloop
  endfacet
  facet normal -0.92388 0.382683 0
    outer loop
      vertex 1.76777 -1.76777 25
      vertex 2.5 0 30
      vertex 2.5 0 25
    endloop
  endfacet
  facet normal -0.92388 0.382683 0
    outer loop
      vertex 2.5 0 30
      vertex 1.76777 -1.76777 25
      vertex 1.76777 -1.76777 30
    endloop
  endfacet
  facet normal 0.382683 0.92388 -0
    outer loop
      vertex 0 -2.5 25
      vertex -1.76777 -1.76777 30
      vertex 0 -2.5 30
    endloop
  endfacet
  facet normal 0.382683 0.92388 0
    outer loop
      vertex -1.76777 -1.76777 30
      vertex 0 -2.5 25
      vertex -1.76777 -1.76777 25
    endloop
  endfacet
endsolid OpenSCAD_Model
