solid OpenSCAD_Model
  facet normal -1 0 0
    outer loop
      vertex -15 -15 0
      vertex -15 -13.0302 7.58952
      vertex -15 -12.9904 7.5
    endloop
  endfacet
  facet normal -1 -0 0
    outer loop
      vertex -15 -14.9178 13.4321
      vertex -15 -15 0
      vertex -15 -14.9178 16.5679
    endloop
  endfacet
  facet normal -1 -0 0
    outer loop
      vertex -15 -14.2658 10.3647
      vertex -15 -15 0
      vertex -15 -14.9178 13.4321
    endloop
  endfacet
  facet normal -1 -0 0
    outer loop
      vertex -15 -13.0302 7.58952
      vertex -15 -15 0
      vertex -15 -14.2658 10.3647
    endloop
  endfacet
  facet normal -1 -0 0
    outer loop
      vertex -15 -12.9328 7.42072
      vertex -15 -15 0
      vertex -15 -12.9904 7.5
    endloop
  endfacet
  facet normal -1 -0 0
    outer loop
      vertex -15 -11.1472 4.96304
      vertex -15 -15 0
      vertex -15 -12.9328 7.42072
    endloop
  endfacet
  facet normal -1 -0 0
    outer loop
      vertex -15 -8.81678 2.86474
      vertex -15 -15 0
      vertex -15 -11.1472 4.96304
    endloop
  endfacet
  facet normal -1 -0 0
    outer loop
      vertex -15 -6.10105 1.29682
      vertex -15 -15 0
      vertex -15 -8.81678 2.86474
    endloop
  endfacet
  facet normal -1 -0 0
    outer loop
      vertex -15 -3.11868 0.327785
      vertex -15 -15 0
      vertex -15 -6.10105 1.29682
    endloop
  endfacet
  facet normal -1 0 0
    outer loop
      vertex -15 -15 0
      vertex -15 -3.11868 0.327785
      vertex -15 0 0
    endloop
  endfacet
  facet normal -1 0 0
    outer loop
      vertex -15 15 0
      vertex -15 14.9178 13.4321
      vertex -15 15 30
    endloop
  endfacet
  facet normal -1 0 0
    outer loop
      vertex -15 15 0
      vertex -15 14.2658 10.3647
      vertex -15 14.9178 13.4321
    endloop
  endfacet
  facet normal -1 0 0
    outer loop
      vertex -15 15 0
      vertex -15 13.0302 7.58952
      vertex -15 14.2658 10.3647
    endloop
  endfacet
  facet normal -1 0 0
    outer loop
      vertex -15 15 0
      vertex -15 12.9904 7.5
      vertex -15 13.0302 7.58952
    endloop
  endfacet
  facet normal -1 0 0
    outer loop
      vertex -15 15 0
      vertex -15 12.9328 7.42072
      vertex -15 12.9904 7.5
    endloop
  endfacet
  facet normal -1 0 0
    outer loop
      vertex -15 15 0
      vertex -15 11.1472 4.96304
      vertex -15 12.9328 7.42072
    endloop
  endfacet
  facet normal -1 0 0
    outer loop
      vertex -15 15 0
      vertex -15 8.81678 2.86474
      vertex -15 11.1472 4.96304
    endloop
  endfacet
  facet normal -1 0 0
    outer loop
      vertex -15 15 0
      vertex -15 6.10105 1.29682
      vertex -15 8.81678 2.86474
    endloop
  endfacet
  facet normal -1 0 0
    outer loop
      vertex -15 15 0
      vertex -15 3.11868 0.327785
      vertex -15 6.10105 1.29682
    endloop
  endfacet
  facet normal -1 0 -0
    outer loop
      vertex -15 3.11868 0.327785
      vertex -15 15 0
      vertex -15 0 0
    endloop
  endfacet
  facet normal -1 0 0
    outer loop
      vertex -15 14.9178 16.5679
      vertex -15 15 30
      vertex -15 14.9178 13.4321
    endloop
  endfacet
  facet normal -1 0 0
    outer loop
      vertex -15 14.2658 19.6353
      vertex -15 15 30
      vertex -15 14.9178 16.5679
    endloop
  endfacet
  facet normal -1 0 0
    outer loop
      vertex -15 14.226 19.7248
      vertex -15 15 30
      vertex -15 14.2658 19.6353
    endloop
  endfacet
  facet normal -1 0 0
    outer loop
      vertex -15 12.9904 22.5
      vertex -15 15 30
      vertex -15 14.226 19.7248
    endloop
  endfacet
  facet normal -1 0 0
    outer loop
      vertex -15 11.2048 24.9577
      vertex -15 15 30
      vertex -15 12.9904 22.5
    endloop
  endfacet
  facet normal -1 0 0
    outer loop
      vertex -15 11.1472 25.037
      vertex -15 15 30
      vertex -15 11.2048 24.9577
    endloop
  endfacet
  facet normal -1 0 0
    outer loop
      vertex -15 8.81678 27.1353
      vertex -15 15 30
      vertex -15 11.1472 25.037
    endloop
  endfacet
  facet normal -1 0 0
    outer loop
      vertex -15 6.10105 28.7032
      vertex -15 15 30
      vertex -15 8.81678 27.1353
    endloop
  endfacet
  facet normal -1 0 0
    outer loop
      vertex -15 3.11868 29.6722
      vertex -15 15 30
      vertex -15 6.10105 28.7032
    endloop
  endfacet
  facet normal -1 0 0
    outer loop
      vertex -15 3.02122 29.6825
      vertex -15 15 30
      vertex -15 3.11868 29.6722
    endloop
  endfacet
  facet normal -1 -0 0
    outer loop
      vertex -15 15 30
      vertex -15 3.02122 29.6825
      vertex -15 0 30
    endloop
  endfacet
  facet normal -1 0 0
    outer loop
      vertex -15 -15 30
      vertex -15 -3.02122 29.6825
      vertex -15 -3.11868 29.6722
    endloop
  endfacet
  facet normal -1 0 0
    outer loop
      vertex -15 -3.02122 29.6825
      vertex -15 -15 30
      vertex -15 0 30
    endloop
  endfacet
  facet normal -1 0 0
    outer loop
      vertex -15 -6.10105 28.7032
      vertex -15 -15 30
      vertex -15 -3.11868 29.6722
    endloop
  endfacet
  facet normal -1 0 0
    outer loop
      vertex -15 -8.81678 27.1353
      vertex -15 -15 30
      vertex -15 -6.10105 28.7032
    endloop
  endfacet
  facet normal -1 0 0
    outer loop
      vertex -15 -11.1472 25.037
      vertex -15 -15 30
      vertex -15 -8.81678 27.1353
    endloop
  endfacet
  facet normal -1 0 0
    outer loop
      vertex -15 -12.9904 22.5
      vertex -15 -15 30
      vertex -15 -11.1472 25.037
    endloop
  endfacet
  facet normal -1 0 0
    outer loop
      vertex -15 -14.2658 19.6353
      vertex -15 -15 30
      vertex -15 -12.9904 22.5
    endloop
  endfacet
  facet normal -1 0 0
    outer loop
      vertex -15 -14.9178 16.5679
      vertex -15 -15 30
      vertex -15 -14.2658 19.6353
    endloop
  endfacet
  facet normal -1 0 0
    outer loop
      vertex -15 -15 30
      vertex -15 -14.9178 16.5679
      vertex -15 -15 0
    endloop
  endfacet
  facet normal 0 0 0
    outer loop
      vertex -15 0 30
      vertex -15 -15 30
      vertex -15 15 30
    endloop
  endfacet
  facet normal 0 0 1
    outer loop
      vertex 15 15 30
      vertex 1.25 0 30
      vertex 15 -15 30
    endloop
  endfacet
  facet normal 0 0 1
    outer loop
      vertex 15 15 30
      vertex 0.386271 1.18882 30
      vertex 1.25 0 30
    endloop
  endfacet
  facet normal -0 0 1
    outer loop
      vertex -15 15 30
      vertex 0.386271 1.18882 30
      vertex 15 15 30
    endloop
  endfacet
  facet normal 0 0 1
    outer loop
      vertex -1.01127 0.734731 30
      vertex -15 15 30
      vertex -1.01127 -0.734731 30
    endloop
  endfacet
  facet normal 0 0 1
    outer loop
      vertex 0.386271 1.18882 30
      vertex -15 15 30
      vertex -1.01127 0.734731 30
    endloop
  endfacet
  facet normal -0 0 1
    outer loop
      vertex 0.386271 -1.18882 30
      vertex 15 -15 30
      vertex 1.25 0 30
    endloop
  endfacet
  facet normal 0 0 1
    outer loop
      vertex -15 -15 30
      vertex 0.386271 -1.18882 30
      vertex -1.01127 -0.734731 30
    endloop
  endfacet
  facet normal 0 0 1
    outer loop
      vertex 0.386271 -1.18882 30
      vertex -15 -15 30
      vertex 15 -15 30
    endloop
  endfacet
  facet normal 0 0 1
    outer loop
      vertex -15 -15 30
      vertex -1.01127 -0.734731 30
      vertex -15 15 30
    endloop
  endfacet
  facet normal 1 0 0
    outer loop
      vertex 15 -14.9178 16.5679
      vertex 15 -15 30
      vertex 15 -14.9178 13.4321
    endloop
  endfacet
  facet normal 1 0 0
    outer loop
      vertex 15 -14.2658 19.6353
      vertex 15 -15 30
      vertex 15 -14.9178 16.5679
    endloop
  endfacet
  facet normal 1 0 0
    outer loop
      vertex 15 -12.9904 22.5
      vertex 15 -15 30
      vertex 15 -14.2658 19.6353
    endloop
  endfacet
  facet normal 1 0 0
    outer loop
      vertex 15 -11.1472 25.037
      vertex 15 -15 30
      vertex 15 -12.9904 22.5
    endloop
  endfacet
  facet normal 1 0 0
    outer loop
      vertex 15 -8.81678 27.1353
      vertex 15 -15 30
      vertex 15 -11.1472 25.037
    endloop
  endfacet
  facet normal 1 0 0
    outer loop
      vertex 15 -6.10105 28.7032
      vertex 15 -15 30
      vertex 15 -8.81678 27.1353
    endloop
  endfacet
  facet normal 1 0 0
    outer loop
      vertex 15 -3.11868 29.6722
      vertex 15 -15 30
      vertex 15 -6.10105 28.7032
    endloop
  endfacet
  facet normal 1 0 0
    outer loop
      vertex 15 -0.0974585 29.9898
      vertex 15 -15 30
      vertex 15 -3.11868 29.6722
    endloop
  endfacet
  facet normal 1 -0 0
    outer loop
      vertex 15 -15 30
      vertex 15 -0.0974585 29.9898
      vertex 15 0 30
    endloop
  endfacet
  facet normal 1 0 0
    outer loop
      vertex 15 15 30
      vertex 15 14.9178 16.5679
      vertex 15 15 0
    endloop
  endfacet
  facet normal 1 0 0
    outer loop
      vertex 15 15 30
      vertex 15 14.2658 19.6353
      vertex 15 14.9178 16.5679
    endloop
  endfacet
  facet normal 1 0 0
    outer loop
      vertex 15 15 30
      vertex 15 13.0302 22.4105
      vertex 15 14.2658 19.6353
    endloop
  endfacet
  facet normal 1 0 0
    outer loop
      vertex 15 15 30
      vertex 15 12.9904 22.5
      vertex 15 13.0302 22.4105
    endloop
  endfacet
  facet normal 1 0 0
    outer loop
      vertex 15 15 30
      vertex 15 12.9328 22.5793
      vertex 15 12.9904 22.5
    endloop
  endfacet
  facet normal 1 0 0
    outer loop
      vertex 15 15 30
      vertex 15 11.1472 25.037
      vertex 15 12.9328 22.5793
    endloop
  endfacet
  facet normal 1 0 0
    outer loop
      vertex 15 15 30
      vertex 15 8.81678 27.1353
      vertex 15 11.1472 25.037
    endloop
  endfacet
  facet normal 1 0 0
    outer loop
      vertex 15 15 30
      vertex 15 6.10105 28.7032
      vertex 15 8.81678 27.1353
    endloop
  endfacet
  facet normal 1 0 0
    outer loop
      vertex 15 15 30
      vertex 15 3.11868 29.6722
      vertex 15 6.10105 28.7032
    endloop
  endfacet
  facet normal 1 0 0
    outer loop
      vertex 15 15 30
      vertex 15 0.0974585 29.9898
      vertex 15 3.11868 29.6722
    endloop
  endfacet
  facet normal 1 0 -0
    outer loop
      vertex 15 0.0974585 29.9898
      vertex 15 15 30
      vertex 15 0 30
    endloop
  endfacet
  facet normal 1 -0 0
    outer loop
      vertex 15 14.9178 13.4321
      vertex 15 15 0
      vertex 15 14.9178 16.5679
    endloop
  endfacet
  facet normal 1 -0 0
    outer loop
      vertex 15 14.2658 10.3647
      vertex 15 15 0
      vertex 15 14.9178 13.4321
    endloop
  endfacet
  facet normal 1 -0 0
    outer loop
      vertex 15 14.226 10.2752
      vertex 15 15 0
      vertex 15 14.2658 10.3647
    endloop
  endfacet
  facet normal 1 -0 0
    outer loop
      vertex 15 12.9904 7.5
      vertex 15 15 0
      vertex 15 14.226 10.2752
    endloop
  endfacet
  facet normal 1 -0 0
    outer loop
      vertex 15 11.2048 5.04232
      vertex 15 15 0
      vertex 15 12.9904 7.5
    endloop
  endfacet
  facet normal 1 -0 0
    outer loop
      vertex 15 11.1472 4.96304
      vertex 15 15 0
      vertex 15 11.2048 5.04232
    endloop
  endfacet
  facet normal 1 -0 0
    outer loop
      vertex 15 8.81678 2.86474
      vertex 15 15 0
      vertex 15 11.1472 4.96304
    endloop
  endfacet
  facet normal 1 -0 0
    outer loop
      vertex 15 6.10105 1.29682
      vertex 15 15 0
      vertex 15 8.81678 2.86474
    endloop
  endfacet
  facet normal 1 -0 0
    outer loop
      vertex 15 3.11868 0.327785
      vertex 15 15 0
      vertex 15 6.10105 1.29682
    endloop
  endfacet
  facet normal 1 0 0
    outer loop
      vertex 15 15 0
      vertex 15 3.11868 0.327785
      vertex 15 0 0
    endloop
  endfacet
  facet normal 1 0 0
    outer loop
      vertex 15 -15 0
      vertex 15 -11.2048 5.04232
      vertex 15 -12.9904 7.5
    endloop
  endfacet
  facet normal 1 0 0
    outer loop
      vertex 15 -15 0
      vertex 15 -14.226 10.2752
      vertex 15 -14.2658 10.3647
    endloop
  endfacet
  facet normal 1 0 0
    outer loop
      vertex 15 -3.11868 0.327785
      vertex 15 -15 0
      vertex 15 0 0
    endloop
  endfacet
  facet normal 1 0 0
    outer loop
      vertex 15 -6.10105 1.29682
      vertex 15 -15 0
      vertex 15 -3.11868 0.327785
    endloop
  endfacet
  facet normal 1 0 0
    outer loop
      vertex 15 -8.81678 2.86474
      vertex 15 -15 0
      vertex 15 -6.10105 1.29682
    endloop
  endfacet
  facet normal 1 0 0
    outer loop
      vertex 15 -11.1472 4.96304
      vertex 15 -15 0
      vertex 15 -8.81678 2.86474
    endloop
  endfacet
  facet normal 1 0 0
    outer loop
      vertex 15 -11.2048 5.04232
      vertex 15 -15 0
      vertex 15 -11.1472 4.96304
    endloop
  endfacet
  facet normal 1 0 0
    outer loop
      vertex 15 -14.226 10.2752
      vertex 15 -15 0
      vertex 15 -12.9904 7.5
    endloop
  endfacet
  facet normal 1 0 0
    outer loop
      vertex 15 -14.9178 13.4321
      vertex 15 -15 0
      vertex 15 -14.2658 10.3647
    endloop
  endfacet
  facet normal 1 0 0
    outer loop
      vertex 15 -15 0
      vertex 15 -14.9178 13.4321
      vertex 15 -15 30
    endloop
  endfacet
  facet normal 0 0 0
    outer loop
      vertex 15 15 30
      vertex 15 -15 30
      vertex 15 0 30
    endloop
  endfacet
  facet normal 0 1 -0
    outer loop
      vertex 15 15 0
      vertex -15 15 30
      vertex 15 15 30
    endloop
  endfacet
  facet normal 0 1 0
    outer loop
      vertex -15 15 30
      vertex 15 15 0
      vertex -15 15 0
    endloop
  endfacet
  facet normal 0 0 -1
    outer loop
      vertex -15 0 0
      vertex 15 0 0
      vertex 15 -15 0
    endloop
  endfacet
  facet normal 0 0 -1
    outer loop
      vertex -15 0 0
      vertex 15 -15 0
      vertex -15 -15 0
    endloop
  endfacet
  facet normal 0 0 -1
    outer loop
      vertex 15 0 0
      vertex -15 0 0
      vertex 15 15 0
    endloop
  endfacet
  facet normal -0 0 -1
    outer loop
      vertex 15 15 0
      vertex -15 0 0
      vertex -15 15 0
    endloop
  endfacet
  facet normal 0 -1 0
    outer loop
      vertex -15 -15 0
      vertex 15 -15 30
      vertex -15 -15 30
    endloop
  endfacet
  facet normal 0 -1 -0
    outer loop
      vertex 15 -15 30
      vertex -15 -15 0
      vertex 15 -15 0
    endloop
  endfacet
  facet normal 8.20549e-07 -0.104528 0.994522
    outer loop
      vertex 15 -0.0974585 29.9898
      vertex 16 -3.11868 29.6722
      vertex 16 0 30
    endloop
  endfacet
  facet normal 0 -0.104529 0.994522
    outer loop
      vertex 16 -3.11868 29.6722
      vertex 15 -0.0974585 29.9898
      vertex 15 -3.11868 29.6722
    endloop
  endfacet
  facet normal 0 -0.10452 0.994523
    outer loop
      vertex -15 -3.02122 29.6825
      vertex -16 -3.11868 29.6722
      vertex -15 -3.11868 29.6722
    endloop
  endfacet
  facet normal 0 0.104528 -0.994522
    outer loop
      vertex -16 0 0
      vertex -15 3.11868 0.327785
      vertex -15 0 0
    endloop
  endfacet
  facet normal 0 0.104528 -0.994522
    outer loop
      vertex -15 3.11868 0.327785
      vertex -16 0 0
      vertex -16 3.11868 0.327785
    endloop
  endfacet
  facet normal 0 0.104528 -0.994522
    outer loop
      vertex 15 0 0
      vertex 16 3.11868 0.327785
      vertex 16 0 0
    endloop
  endfacet
  facet normal 0 0.104528 -0.994522
    outer loop
      vertex 16 3.11868 0.327785
      vertex 15 0 0
      vertex 15 3.11868 0.327785
    endloop
  endfacet
  facet normal 1 7.81567e-08 1.35371e-07
    outer loop
      vertex 16 8.81678 27.1353
      vertex 16 6.10105 28.7032
      vertex 16 14.9178 16.5679
    endloop
  endfacet
  facet normal 1 0 7.09998e-08
    outer loop
      vertex 16 14.9178 16.5679
      vertex 16 0 30
      vertex 16 -14.9178 16.5679
    endloop
  endfacet
  facet normal -1 1.69237e-07 -1.87956e-07
    outer loop
      vertex -16 8.81678 2.86474
      vertex -16 14.9178 13.4321
      vertex -16 11.1472 4.96304
    endloop
  endfacet
  facet normal 0 0.104529 0.994522
    outer loop
      vertex 15 0.0974585 29.9898
      vertex 16 3.11868 29.6722
      vertex 15 3.11868 29.6722
    endloop
  endfacet
  facet normal 8.20549e-07 0.104528 0.994522
    outer loop
      vertex 16 3.11868 29.6722
      vertex 15 0.0974585 29.9898
      vertex 16 0 30
    endloop
  endfacet
  facet normal 0 0.10452 0.994523
    outer loop
      vertex -15 3.11868 29.6722
      vertex -16 3.11868 29.6722
      vertex -15 3.02122 29.6825
    endloop
  endfacet
  facet normal -1 4.0029e-07 -2.90828e-07
    outer loop
      vertex -16 11.1472 4.96304
      vertex -16 14.9178 13.4321
      vertex -16 12.9904 7.5
    endloop
  endfacet
  facet normal -1 0 -7.09998e-08
    outer loop
      vertex -16 0 0
      vertex -16 -14.9178 13.4321
      vertex -16 14.9178 13.4321
    endloop
  endfacet
  facet normal 0 -0.669131 -0.743145
    outer loop
      vertex 15 -11.1472 4.96304
      vertex 16 -8.81678 2.86474
      vertex 16 -11.1472 4.96304
    endloop
  endfacet
  facet normal -0 -0.669131 -0.743145
    outer loop
      vertex 16 -8.81678 2.86474
      vertex 15 -11.1472 4.96304
      vertex 15 -8.81678 2.86474
    endloop
  endfacet
  facet normal 0 -0.669131 -0.743145
    outer loop
      vertex -16 -11.1472 4.96304
      vertex -15 -8.81678 2.86474
      vertex -15 -11.1472 4.96304
    endloop
  endfacet
  facet normal -0 -0.669131 -0.743145
    outer loop
      vertex -15 -8.81678 2.86474
      vertex -16 -11.1472 4.96304
      vertex -16 -8.81678 2.86474
    endloop
  endfacet
  facet normal -1 -1.69237e-07 -1.87956e-07
    outer loop
      vertex -16 -11.1472 4.96304
      vertex -16 -14.9178 13.4321
      vertex -16 -8.81678 2.86474
    endloop
  endfacet
  facet normal 0 -1 0
    outer loop
      vertex 15 -14.9178 13.4321
      vertex 16 -14.9178 16.5679
      vertex 15 -14.9178 16.5679
    endloop
  endfacet
  facet normal 0 -1 -0
    outer loop
      vertex 16 -14.9178 16.5679
      vertex 15 -14.9178 13.4321
      vertex 16 -14.9178 13.4321
    endloop
  endfacet
  facet normal 0 -1 0
    outer loop
      vertex -16 -14.9178 13.4321
      vertex -15 -14.9178 16.5679
      vertex -16 -14.9178 16.5679
    endloop
  endfacet
  facet normal 0 -1 -0
    outer loop
      vertex -15 -14.9178 16.5679
      vertex -16 -14.9178 13.4321
      vertex -15 -14.9178 13.4321
    endloop
  endfacet
  facet normal 1 1.69236e-07 1.87956e-07
    outer loop
      vertex 16 11.1472 25.037
      vertex 16 8.81678 27.1353
      vertex 16 14.9178 16.5679
    endloop
  endfacet
  facet normal 0 0.913544 -0.406741
    outer loop
      vertex 16 14.2658 10.3647
      vertex 15 14.226 10.2752
      vertex 15 14.2658 10.3647
    endloop
  endfacet
  facet normal 0 0.913545 -0.406737
    outer loop
      vertex -15 13.0302 7.58952
      vertex -16 14.2658 10.3647
      vertex -15 14.2658 10.3647
    endloop
  endfacet
  facet normal 4.47735e-07 0.913545 -0.406737
    outer loop
      vertex -16 14.2658 10.3647
      vertex -15 13.0302 7.58952
      vertex -16 12.9904 7.5
    endloop
  endfacet
  facet normal 0 0.669131 -0.743145
    outer loop
      vertex -16 8.81678 2.86474
      vertex -15 11.1472 4.96304
      vertex -15 8.81678 2.86474
    endloop
  endfacet
  facet normal 0 0.669131 -0.743145
    outer loop
      vertex -15 11.1472 4.96304
      vertex -16 8.81678 2.86474
      vertex -16 11.1472 4.96304
    endloop
  endfacet
  facet normal 0 0.669131 -0.743145
    outer loop
      vertex 15 8.81678 2.86474
      vertex 16 11.1472 4.96304
      vertex 16 8.81678 2.86474
    endloop
  endfacet
  facet normal 0 0.669131 -0.743145
    outer loop
      vertex 16 11.1472 4.96304
      vertex 15 8.81678 2.86474
      vertex 15 11.1472 4.96304
    endloop
  endfacet
  facet normal 0 0.309017 -0.951057
    outer loop
      vertex -16 3.11868 0.327785
      vertex -15 6.10105 1.29682
      vertex -15 3.11868 0.327785
    endloop
  endfacet
  facet normal 0 0.309017 -0.951057
    outer loop
      vertex -15 6.10105 1.29682
      vertex -16 3.11868 0.327785
      vertex -16 6.10105 1.29682
    endloop
  endfacet
  facet normal 0 0.309017 -0.951057
    outer loop
      vertex 15 3.11868 0.327785
      vertex 16 6.10105 1.29682
      vertex 16 3.11868 0.327785
    endloop
  endfacet
  facet normal 0 0.309017 -0.951057
    outer loop
      vertex 16 6.10105 1.29682
      vertex 15 3.11868 0.327785
      vertex 15 6.10105 1.29682
    endloop
  endfacet
  facet normal -1 -8.44857e-09 -8.03829e-08
    outer loop
      vertex -16 -3.11868 0.327785
      vertex -16 -14.9178 13.4321
      vertex -16 0 0
    endloop
  endfacet
  facet normal -1 8.44857e-09 -8.03829e-08
    outer loop
      vertex -16 0 0
      vertex -16 14.9178 13.4321
      vertex -16 3.11868 0.327785
    endloop
  endfacet
  facet normal -0 -0.913544 -0.406741
    outer loop
      vertex 16 -14.2658 10.3647
      vertex 15 -14.2658 10.3647
      vertex 15 -14.226 10.2752
    endloop
  endfacet
  facet normal 0 -0.913545 -0.406737
    outer loop
      vertex -16 -14.2658 10.3647
      vertex -15 -13.0302 7.58952
      vertex -15 -14.2658 10.3647
    endloop
  endfacet
  facet normal 4.47735e-07 -0.913545 -0.406737
    outer loop
      vertex -15 -13.0302 7.58952
      vertex -16 -14.2658 10.3647
      vertex -16 -12.9904 7.5
    endloop
  endfacet
  facet normal -1 -3.34251e-08 -1.02872e-07
    outer loop
      vertex -16 -6.10105 1.29682
      vertex -16 -14.9178 13.4321
      vertex -16 -3.11868 0.327785
    endloop
  endfacet
  facet normal 1 0 0
    outer loop
      vertex 16 14.9178 16.5679
      vertex 16 14.2658 10.3647
      vertex 16 14.9178 13.4321
    endloop
  endfacet
  facet normal 1 0 0
    outer loop
      vertex 16 14.9178 16.5679
      vertex 16 12.9904 7.5
      vertex 16 14.2658 10.3647
    endloop
  endfacet
  facet normal 1 0 0
    outer loop
      vertex 16 14.9178 16.5679
      vertex 16 11.1472 4.96304
      vertex 16 12.9904 7.5
    endloop
  endfacet
  facet normal 1 0 0
    outer loop
      vertex 16 14.9178 16.5679
      vertex 16 8.81678 2.86474
      vertex 16 11.1472 4.96304
    endloop
  endfacet
  facet normal 1 0 0
    outer loop
      vertex 16 14.9178 16.5679
      vertex 16 6.10105 1.29682
      vertex 16 8.81678 2.86474
    endloop
  endfacet
  facet normal 1 0 0
    outer loop
      vertex 16 14.9178 16.5679
      vertex 16 3.11868 0.327785
      vertex 16 6.10105 1.29682
    endloop
  endfacet
  facet normal 1 0 0
    outer loop
      vertex 16 14.9178 16.5679
      vertex 16 0 0
      vertex 16 3.11868 0.327785
    endloop
  endfacet
  facet normal 1 0 0
    outer loop
      vertex 16 14.9178 16.5679
      vertex 16 -3.11868 0.327785
      vertex 16 0 0
    endloop
  endfacet
  facet normal 1 0 0
    outer loop
      vertex 16 14.9178 16.5679
      vertex 16 -6.10105 1.29682
      vertex 16 -3.11868 0.327785
    endloop
  endfacet
  facet normal 1 0 0
    outer loop
      vertex 16 14.9178 16.5679
      vertex 16 -8.81678 2.86474
      vertex 16 -6.10105 1.29682
    endloop
  endfacet
  facet normal 1 0 0
    outer loop
      vertex 16 14.9178 16.5679
      vertex 16 -11.1472 4.96304
      vertex 16 -8.81678 2.86474
    endloop
  endfacet
  facet normal 1 0 0
    outer loop
      vertex 16 14.9178 16.5679
      vertex 16 -12.9904 7.5
      vertex 16 -11.1472 4.96304
    endloop
  endfacet
  facet normal 1 0 0
    outer loop
      vertex 16 14.9178 16.5679
      vertex 16 -14.2658 10.3647
      vertex 16 -12.9904 7.5
    endloop
  endfacet
  facet normal 1 -0 0
    outer loop
      vertex 16 -14.9178 16.5679
      vertex 16 -14.2658 10.3647
      vertex 16 14.9178 16.5679
    endloop
  endfacet
  facet normal 1 0 0
    outer loop
      vertex 16 -14.2658 10.3647
      vertex 16 -14.9178 16.5679
      vertex 16 -14.9178 13.4321
    endloop
  endfacet
  facet normal 1 -1.69236e-07 1.87956e-07
    outer loop
      vertex 16 -8.81678 27.1353
      vertex 16 -11.1472 25.037
      vertex 16 -14.9178 16.5679
    endloop
  endfacet
  facet normal 0 0.978148 0.207912
    outer loop
      vertex 16 14.9178 16.5679
      vertex 15 14.2658 19.6353
      vertex 16 14.2658 19.6353
    endloop
  endfacet
  facet normal 0 0.978148 0.207912
    outer loop
      vertex 15 14.2658 19.6353
      vertex 16 14.9178 16.5679
      vertex 15 14.9178 16.5679
    endloop
  endfacet
  facet normal 0 0.978148 0.207912
    outer loop
      vertex -15 14.9178 16.5679
      vertex -16 14.2658 19.6353
      vertex -15 14.2658 19.6353
    endloop
  endfacet
  facet normal 0 0.978148 0.207912
    outer loop
      vertex -16 14.2658 19.6353
      vertex -15 14.9178 16.5679
      vertex -16 14.9178 16.5679
    endloop
  endfacet
  facet normal -0 0.66913 0.743145
    outer loop
      vertex 15 11.1472 25.037
      vertex 16 8.81678 27.1353
      vertex 16 11.1472 25.037
    endloop
  endfacet
  facet normal 0 0.66913 0.743145
    outer loop
      vertex 16 8.81678 27.1353
      vertex 15 11.1472 25.037
      vertex 15 8.81678 27.1353
    endloop
  endfacet
  facet normal -0 0.66913 0.743145
    outer loop
      vertex -16 11.1472 25.037
      vertex -15 8.81678 27.1353
      vertex -15 11.1472 25.037
    endloop
  endfacet
  facet normal 0 0.66913 0.743145
    outer loop
      vertex -15 8.81678 27.1353
      vertex -16 11.1472 25.037
      vertex -16 8.81678 27.1353
    endloop
  endfacet
  facet normal 1 4.0029e-07 2.90828e-07
    outer loop
      vertex 16 12.9904 22.5
      vertex 16 11.1472 25.037
      vertex 16 14.9178 16.5679
    endloop
  endfacet
  facet normal 1 1.33627e-06 5.94948e-07
    outer loop
      vertex 16 14.2658 19.6353
      vertex 16 12.9904 22.5
      vertex 16 14.9178 16.5679
    endloop
  endfacet
  facet normal 0 0.809017 -0.587785
    outer loop
      vertex 16 12.9904 7.5
      vertex 15 11.2048 5.04232
      vertex 15 12.9904 7.5
    endloop
  endfacet
  facet normal -1.40333e-07 0.809017 -0.587785
    outer loop
      vertex 15 11.2048 5.04232
      vertex 16 12.9904 7.5
      vertex 16 11.1472 4.96304
    endloop
  endfacet
  facet normal 0 0.809018 -0.587784
    outer loop
      vertex -15 12.9328 7.42072
      vertex -16 12.9904 7.5
      vertex -15 12.9904 7.5
    endloop
  endfacet
  facet normal -4.11369e-07 0.913545 -0.406737
    outer loop
      vertex 16 12.9904 7.5
      vertex 15 14.226 10.2752
      vertex 16 14.2658 10.3647
    endloop
  endfacet
  facet normal 0 0.913545 -0.406737
    outer loop
      vertex 15 14.226 10.2752
      vertex 16 12.9904 7.5
      vertex 15 12.9904 7.5
    endloop
  endfacet
  facet normal 0 0.913547 -0.406733
    outer loop
      vertex -15 12.9904 7.5
      vertex -16 12.9904 7.5
      vertex -15 13.0302 7.58952
    endloop
  endfacet
  facet normal -1 1.33627e-06 -5.94947e-07
    outer loop
      vertex -16 12.9904 7.5
      vertex -16 14.9178 13.4321
      vertex -16 14.2658 10.3647
    endloop
  endfacet
  facet normal 0 0.978148 -0.207912
    outer loop
      vertex -15 14.2658 10.3647
      vertex -16 14.9178 13.4321
      vertex -15 14.9178 13.4321
    endloop
  endfacet
  facet normal 0 0.978148 -0.207912
    outer loop
      vertex -16 14.9178 13.4321
      vertex -15 14.2658 10.3647
      vertex -16 14.2658 10.3647
    endloop
  endfacet
  facet normal 0 0.978148 -0.207912
    outer loop
      vertex 16 14.2658 10.3647
      vertex 15 14.9178 13.4321
      vertex 16 14.9178 13.4321
    endloop
  endfacet
  facet normal 0 0.978148 -0.207912
    outer loop
      vertex 15 14.9178 13.4321
      vertex 16 14.2658 10.3647
      vertex 15 14.2658 10.3647
    endloop
  endfacet
  facet normal 0 1 -0
    outer loop
      vertex -15 14.9178 13.4321
      vertex -16 14.9178 16.5679
      vertex -15 14.9178 16.5679
    endloop
  endfacet
  facet normal 0 1 0
    outer loop
      vertex -16 14.9178 16.5679
      vertex -15 14.9178 13.4321
      vertex -16 14.9178 13.4321
    endloop
  endfacet
  facet normal 0 1 -0
    outer loop
      vertex 16 14.9178 13.4321
      vertex 15 14.9178 16.5679
      vertex 16 14.9178 16.5679
    endloop
  endfacet
  facet normal 0 1 0
    outer loop
      vertex 15 14.9178 16.5679
      vertex 16 14.9178 13.4321
      vertex 15 14.9178 13.4321
    endloop
  endfacet
  facet normal -1 3.34251e-08 -1.02872e-07
    outer loop
      vertex -16 3.11868 0.327785
      vertex -16 14.9178 13.4321
      vertex -16 6.10105 1.29682
    endloop
  endfacet
  facet normal -1 7.81565e-08 -1.35371e-07
    outer loop
      vertex -16 6.10105 1.29682
      vertex -16 14.9178 13.4321
      vertex -16 8.81678 2.86474
    endloop
  endfacet
  facet normal 0 0.809017 -0.587785
    outer loop
      vertex -16 11.1472 4.96304
      vertex -15 12.9328 7.42072
      vertex -15 11.1472 4.96304
    endloop
  endfacet
  facet normal -1.5785e-07 0.809017 -0.587785
    outer loop
      vertex -15 12.9328 7.42072
      vertex -16 11.1472 4.96304
      vertex -16 12.9904 7.5
    endloop
  endfacet
  facet normal 0 0.809018 -0.587784
    outer loop
      vertex 16 11.1472 4.96304
      vertex 15 11.1472 4.96304
      vertex 15 11.2048 5.04232
    endloop
  endfacet
  facet normal 0 0.5 -0.866025
    outer loop
      vertex -16 6.10105 1.29682
      vertex -15 8.81678 2.86474
      vertex -15 6.10105 1.29682
    endloop
  endfacet
  facet normal 0 0.5 -0.866025
    outer loop
      vertex -15 8.81678 2.86474
      vertex -16 6.10105 1.29682
      vertex -16 8.81678 2.86474
    endloop
  endfacet
  facet normal 0 0.5 -0.866025
    outer loop
      vertex 15 6.10105 1.29682
      vertex 16 8.81678 2.86474
      vertex 16 6.10105 1.29682
    endloop
  endfacet
  facet normal 0 0.5 -0.866025
    outer loop
      vertex 16 8.81678 2.86474
      vertex 15 6.10105 1.29682
      vertex 15 8.81678 2.86474
    endloop
  endfacet
  facet normal -0 -0.809018 -0.587784
    outer loop
      vertex 16 -11.1472 4.96304
      vertex 15 -11.2048 5.04232
      vertex 15 -11.1472 4.96304
    endloop
  endfacet
  facet normal -1.5785e-07 -0.809017 -0.587785
    outer loop
      vertex -16 -11.1472 4.96304
      vertex -15 -12.9328 7.42072
      vertex -16 -12.9904 7.5
    endloop
  endfacet
  facet normal 0 -0.809017 -0.587785
    outer loop
      vertex -15 -12.9328 7.42072
      vertex -16 -11.1472 4.96304
      vertex -15 -11.1472 4.96304
    endloop
  endfacet
  facet normal 0 -0.5 -0.866025
    outer loop
      vertex 15 -8.81678 2.86474
      vertex 16 -6.10105 1.29682
      vertex 16 -8.81678 2.86474
    endloop
  endfacet
  facet normal -0 -0.5 -0.866025
    outer loop
      vertex 16 -6.10105 1.29682
      vertex 15 -8.81678 2.86474
      vertex 15 -6.10105 1.29682
    endloop
  endfacet
  facet normal 0 -0.5 -0.866025
    outer loop
      vertex -16 -8.81678 2.86474
      vertex -15 -6.10105 1.29682
      vertex -15 -8.81678 2.86474
    endloop
  endfacet
  facet normal -0 -0.5 -0.866025
    outer loop
      vertex -15 -6.10105 1.29682
      vertex -16 -8.81678 2.86474
      vertex -16 -6.10105 1.29682
    endloop
  endfacet
  facet normal -1 -7.81565e-08 -1.35371e-07
    outer loop
      vertex -16 -8.81678 2.86474
      vertex -16 -14.9178 13.4321
      vertex -16 -6.10105 1.29682
    endloop
  endfacet
  facet normal 0 -0.104528 -0.994522
    outer loop
      vertex 15 -3.11868 0.327785
      vertex 16 0 0
      vertex 16 -3.11868 0.327785
    endloop
  endfacet
  facet normal -0 -0.104528 -0.994522
    outer loop
      vertex 16 0 0
      vertex 15 -3.11868 0.327785
      vertex 15 0 0
    endloop
  endfacet
  facet normal 0 -0.104528 -0.994522
    outer loop
      vertex -16 -3.11868 0.327785
      vertex -15 0 0
      vertex -15 -3.11868 0.327785
    endloop
  endfacet
  facet normal -0 -0.104528 -0.994522
    outer loop
      vertex -15 0 0
      vertex -16 -3.11868 0.327785
      vertex -16 0 0
    endloop
  endfacet
  facet normal -1 -1.33627e-06 -5.94947e-07
    outer loop
      vertex -16 -14.2658 10.3647
      vertex -16 -14.9178 13.4321
      vertex -16 -12.9904 7.5
    endloop
  endfacet
  facet normal -1 -4.0029e-07 -2.90828e-07
    outer loop
      vertex -16 -12.9904 7.5
      vertex -16 -14.9178 13.4321
      vertex -16 -11.1472 4.96304
    endloop
  endfacet
  facet normal 0 -0.978148 -0.207912
    outer loop
      vertex -16 -14.2658 10.3647
      vertex -15 -14.9178 13.4321
      vertex -16 -14.9178 13.4321
    endloop
  endfacet
  facet normal 0 -0.978148 -0.207912
    outer loop
      vertex -15 -14.9178 13.4321
      vertex -16 -14.2658 10.3647
      vertex -15 -14.2658 10.3647
    endloop
  endfacet
  facet normal 0 -0.978148 -0.207912
    outer loop
      vertex 15 -14.2658 10.3647
      vertex 16 -14.9178 13.4321
      vertex 15 -14.9178 13.4321
    endloop
  endfacet
  facet normal 0 -0.978148 -0.207912
    outer loop
      vertex 16 -14.9178 13.4321
      vertex 15 -14.2658 10.3647
      vertex 16 -14.2658 10.3647
    endloop
  endfacet
  facet normal 0 -0.809017 0.587785
    outer loop
      vertex -16 -12.9904 22.5
      vertex -15 -11.1472 25.037
      vertex -16 -11.1472 25.037
    endloop
  endfacet
  facet normal 0 -0.809017 0.587785
    outer loop
      vertex -15 -11.1472 25.037
      vertex -16 -12.9904 22.5
      vertex -15 -12.9904 22.5
    endloop
  endfacet
  facet normal 0 -0.809017 0.587785
    outer loop
      vertex 15 -12.9904 22.5
      vertex 16 -11.1472 25.037
      vertex 15 -11.1472 25.037
    endloop
  endfacet
  facet normal 0 -0.809017 0.587785
    outer loop
      vertex 16 -11.1472 25.037
      vertex 15 -12.9904 22.5
      vertex 16 -12.9904 22.5
    endloop
  endfacet
  facet normal 1 -1.33627e-06 5.94948e-07
    outer loop
      vertex 16 -12.9904 22.5
      vertex 16 -14.2658 19.6353
      vertex 16 -14.9178 16.5679
    endloop
  endfacet
  facet normal 1 -3.34251e-08 1.02872e-07
    outer loop
      vertex 16 -3.11868 29.6722
      vertex 16 -6.10105 28.7032
      vertex 16 -14.9178 16.5679
    endloop
  endfacet
  facet normal 1 -8.44857e-09 8.03829e-08
    outer loop
      vertex 16 0 30
      vertex 16 -3.11868 29.6722
      vertex 16 -14.9178 16.5679
    endloop
  endfacet
  facet normal 1 8.44857e-09 8.03829e-08
    outer loop
      vertex 16 3.11868 29.6722
      vertex 16 0 30
      vertex 16 14.9178 16.5679
    endloop
  endfacet
  facet normal 1 3.34251e-08 1.02872e-07
    outer loop
      vertex 16 6.10105 28.7032
      vertex 16 3.11868 29.6722
      vertex 16 14.9178 16.5679
    endloop
  endfacet
  facet normal 0 0.809017 0.587785
    outer loop
      vertex 16 11.1472 25.037
      vertex 15 12.9328 22.5793
      vertex 15 11.1472 25.037
    endloop
  endfacet
  facet normal -4.02706e-07 0.809017 0.587785
    outer loop
      vertex 15 12.9328 22.5793
      vertex 16 11.1472 25.037
      vertex 16 12.9904 22.5
    endloop
  endfacet
  facet normal 0 0.809021 0.587779
    outer loop
      vertex -15 11.2048 24.9577
      vertex -16 11.1472 25.037
      vertex -15 11.1472 25.037
    endloop
  endfacet
  facet normal 0 -0.809017 -0.587785
    outer loop
      vertex 15 -11.2048 5.04232
      vertex 16 -12.9904 7.5
      vertex 15 -12.9904 7.5
    endloop
  endfacet
  facet normal -1.40333e-07 -0.809017 -0.587785
    outer loop
      vertex 16 -12.9904 7.5
      vertex 15 -11.2048 5.04232
      vertex 16 -11.1472 4.96304
    endloop
  endfacet
  facet normal -0 -0.809018 -0.587784
    outer loop
      vertex -15 -12.9904 7.5
      vertex -16 -12.9904 7.5
      vertex -15 -12.9328 7.42072
    endloop
  endfacet
  facet normal -0 -0.913545 -0.406737
    outer loop
      vertex 16 -12.9904 7.5
      vertex 15 -14.226 10.2752
      vertex 15 -12.9904 7.5
    endloop
  endfacet
  facet normal -4.11369e-07 -0.913545 -0.406737
    outer loop
      vertex 15 -14.226 10.2752
      vertex 16 -12.9904 7.5
      vertex 16 -14.2658 10.3647
    endloop
  endfacet
  facet normal 0 -0.913547 -0.406733
    outer loop
      vertex -15 -13.0302 7.58952
      vertex -16 -12.9904 7.5
      vertex -15 -12.9904 7.5
    endloop
  endfacet
  facet normal 0 -0.978148 0.207912
    outer loop
      vertex 15 -14.9178 16.5679
      vertex 16 -14.2658 19.6353
      vertex 15 -14.2658 19.6353
    endloop
  endfacet
  facet normal 0 -0.978148 0.207912
    outer loop
      vertex 16 -14.2658 19.6353
      vertex 15 -14.9178 16.5679
      vertex 16 -14.9178 16.5679
    endloop
  endfacet
  facet normal 0 -0.978148 0.207912
    outer loop
      vertex -16 -14.9178 16.5679
      vertex -15 -14.2658 19.6353
      vertex -16 -14.2658 19.6353
    endloop
  endfacet
  facet normal 0 -0.978148 0.207912
    outer loop
      vertex -15 -14.2658 19.6353
      vertex -16 -14.9178 16.5679
      vertex -15 -14.9178 16.5679
    endloop
  endfacet
  facet normal -1 0 0
    outer loop
      vertex -16 14.9178 13.4321
      vertex -16 14.2658 19.6353
      vertex -16 14.9178 16.5679
    endloop
  endfacet
  facet normal -1 0 0
    outer loop
      vertex -16 14.9178 13.4321
      vertex -16 12.9904 22.5
      vertex -16 14.2658 19.6353
    endloop
  endfacet
  facet normal -1 0 0
    outer loop
      vertex -16 14.9178 13.4321
      vertex -16 11.1472 25.037
      vertex -16 12.9904 22.5
    endloop
  endfacet
  facet normal -1 0 0
    outer loop
      vertex -16 14.9178 13.4321
      vertex -16 8.81678 27.1353
      vertex -16 11.1472 25.037
    endloop
  endfacet
  facet normal -1 0 0
    outer loop
      vertex -16 14.9178 13.4321
      vertex -16 6.10105 28.7032
      vertex -16 8.81678 27.1353
    endloop
  endfacet
  facet normal -1 0 0
    outer loop
      vertex -16 14.9178 13.4321
      vertex -16 3.11868 29.6722
      vertex -16 6.10105 28.7032
    endloop
  endfacet
  facet normal -1 0 0
    outer loop
      vertex -16 14.9178 13.4321
      vertex -16 0 30
      vertex -16 3.11868 29.6722
    endloop
  endfacet
  facet normal -1 0 0
    outer loop
      vertex -16 14.9178 13.4321
      vertex -16 -3.11868 29.6722
      vertex -16 0 30
    endloop
  endfacet
  facet normal -1 0 0
    outer loop
      vertex -16 14.9178 13.4321
      vertex -16 -6.10105 28.7032
      vertex -16 -3.11868 29.6722
    endloop
  endfacet
  facet normal -1 0 0
    outer loop
      vertex -16 14.9178 13.4321
      vertex -16 -8.81678 27.1353
      vertex -16 -6.10105 28.7032
    endloop
  endfacet
  facet normal -1 0 0
    outer loop
      vertex -16 14.9178 13.4321
      vertex -16 -11.1472 25.037
      vertex -16 -8.81678 27.1353
    endloop
  endfacet
  facet normal -1 0 0
    outer loop
      vertex -16 14.9178 13.4321
      vertex -16 -12.9904 22.5
      vertex -16 -11.1472 25.037
    endloop
  endfacet
  facet normal -1 0 0
    outer loop
      vertex -16 14.9178 13.4321
      vertex -16 -14.2658 19.6353
      vertex -16 -12.9904 22.5
    endloop
  endfacet
  facet normal -1 0 0
    outer loop
      vertex -16 -14.9178 13.4321
      vertex -16 -14.2658 19.6353
      vertex -16 14.9178 13.4321
    endloop
  endfacet
  facet normal -1 0 0
    outer loop
      vertex -16 -14.2658 19.6353
      vertex -16 -14.9178 13.4321
      vertex -16 -14.9178 16.5679
    endloop
  endfacet
  facet normal 1 -4.0029e-07 2.90828e-07
    outer loop
      vertex 16 -11.1472 25.037
      vertex 16 -12.9904 22.5
      vertex 16 -14.9178 16.5679
    endloop
  endfacet
  facet normal 0 -0.913545 0.406737
    outer loop
      vertex -16 -14.2658 19.6353
      vertex -15 -12.9904 22.5
      vertex -16 -12.9904 22.5
    endloop
  endfacet
  facet normal 0 -0.913545 0.406737
    outer loop
      vertex -15 -12.9904 22.5
      vertex -16 -14.2658 19.6353
      vertex -15 -14.2658 19.6353
    endloop
  endfacet
  facet normal 0 -0.913545 0.406737
    outer loop
      vertex 15 -14.2658 19.6353
      vertex 16 -12.9904 22.5
      vertex 15 -12.9904 22.5
    endloop
  endfacet
  facet normal 0 -0.913545 0.406737
    outer loop
      vertex 16 -12.9904 22.5
      vertex 15 -14.2658 19.6353
      vertex 16 -14.2658 19.6353
    endloop
  endfacet
  facet normal 1 -7.81567e-08 1.35371e-07
    outer loop
      vertex 16 -6.10105 28.7032
      vertex 16 -8.81678 27.1353
      vertex 16 -14.9178 16.5679
    endloop
  endfacet
  facet normal 0 -0.10452 0.994523
    outer loop
      vertex 15 0 30
      vertex 15 -0.0974585 29.9898
      vertex 16 0 30
    endloop
  endfacet
  facet normal 0 -0.104529 0.994522
    outer loop
      vertex -16 0 30
      vertex -15 -3.02122 29.6825
      vertex -15 0 30
    endloop
  endfacet
  facet normal 8.29894e-07 -0.104528 0.994522
    outer loop
      vertex -15 -3.02122 29.6825
      vertex -16 0 30
      vertex -16 -3.11868 29.6722
    endloop
  endfacet
  facet normal 0 0.913546 0.406736
    outer loop
      vertex -15 14.226 19.7248
      vertex -16 12.9904 22.5
      vertex -15 12.9904 22.5
    endloop
  endfacet
  facet normal 4.35612e-07 0.913545 0.406737
    outer loop
      vertex -16 12.9904 22.5
      vertex -15 14.226 19.7248
      vertex -16 14.2658 19.6353
    endloop
  endfacet
  facet normal 0 0.913547 0.406733
    outer loop
      vertex 15 13.0302 22.4105
      vertex 15 12.9904 22.5
      vertex 16 12.9904 22.5
    endloop
  endfacet
  facet normal -4.35613e-07 0.913545 0.406737
    outer loop
      vertex 16 14.2658 19.6353
      vertex 15 13.0302 22.4105
      vertex 16 12.9904 22.5
    endloop
  endfacet
  facet normal 0 0.913545 0.406737
    outer loop
      vertex 15 13.0302 22.4105
      vertex 16 14.2658 19.6353
      vertex 15 14.2658 19.6353
    endloop
  endfacet
  facet normal 0 0.913544 0.406741
    outer loop
      vertex -15 14.2658 19.6353
      vertex -16 14.2658 19.6353
      vertex -15 14.226 19.7248
    endloop
  endfacet
  facet normal 0 -0.309017 -0.951057
    outer loop
      vertex -16 -6.10105 1.29682
      vertex -15 -3.11868 0.327785
      vertex -15 -6.10105 1.29682
    endloop
  endfacet
  facet normal -0 -0.309017 -0.951057
    outer loop
      vertex -15 -3.11868 0.327785
      vertex -16 -6.10105 1.29682
      vertex -16 -3.11868 0.327785
    endloop
  endfacet
  facet normal 0 -0.309017 -0.951057
    outer loop
      vertex 15 -6.10105 1.29682
      vertex 16 -3.11868 0.327785
      vertex 16 -6.10105 1.29682
    endloop
  endfacet
  facet normal -0 -0.309017 -0.951057
    outer loop
      vertex 16 -3.11868 0.327785
      vertex 15 -6.10105 1.29682
      vertex 15 -3.11868 0.327785
    endloop
  endfacet
  facet normal 0 -0.66913 0.743145
    outer loop
      vertex -16 -8.81678 27.1353
      vertex -15 -11.1472 25.037
      vertex -15 -8.81678 27.1353
    endloop
  endfacet
  facet normal 0 -0.66913 0.743145
    outer loop
      vertex -15 -11.1472 25.037
      vertex -16 -8.81678 27.1353
      vertex -16 -11.1472 25.037
    endloop
  endfacet
  facet normal 0 -0.66913 0.743145
    outer loop
      vertex 15 -8.81678 27.1353
      vertex 16 -11.1472 25.037
      vertex 16 -8.81678 27.1353
    endloop
  endfacet
  facet normal 0 -0.66913 0.743145
    outer loop
      vertex 16 -11.1472 25.037
      vertex 15 -8.81678 27.1353
      vertex 15 -11.1472 25.037
    endloop
  endfacet
  facet normal -0 0.809017 0.587785
    outer loop
      vertex -16 12.9904 22.5
      vertex -15 11.2048 24.9577
      vertex -15 12.9904 22.5
    endloop
  endfacet
  facet normal 7.18406e-07 0.809017 0.587785
    outer loop
      vertex -15 11.2048 24.9577
      vertex -16 12.9904 22.5
      vertex -16 11.1472 25.037
    endloop
  endfacet
  facet normal -0 0.809015 0.587789
    outer loop
      vertex 15 12.9904 22.5
      vertex 15 12.9328 22.5793
      vertex 16 12.9904 22.5
    endloop
  endfacet
  facet normal -0 0.309017 0.951057
    outer loop
      vertex 15 6.10105 28.7032
      vertex 16 3.11868 29.6722
      vertex 16 6.10105 28.7032
    endloop
  endfacet
  facet normal 0 0.309017 0.951057
    outer loop
      vertex 16 3.11868 29.6722
      vertex 15 6.10105 28.7032
      vertex 15 3.11868 29.6722
    endloop
  endfacet
  facet normal -0 0.309017 0.951057
    outer loop
      vertex -16 6.10105 28.7032
      vertex -15 3.11868 29.6722
      vertex -15 6.10105 28.7032
    endloop
  endfacet
  facet normal 0 0.309017 0.951057
    outer loop
      vertex -15 3.11868 29.6722
      vertex -16 6.10105 28.7032
      vertex -16 3.11868 29.6722
    endloop
  endfacet
  facet normal -0 0.5 0.866025
    outer loop
      vertex 15 8.81678 27.1353
      vertex 16 6.10105 28.7032
      vertex 16 8.81678 27.1353
    endloop
  endfacet
  facet normal 0 0.5 0.866025
    outer loop
      vertex 16 6.10105 28.7032
      vertex 15 8.81678 27.1353
      vertex 15 6.10105 28.7032
    endloop
  endfacet
  facet normal -0 0.5 0.866025
    outer loop
      vertex -16 8.81678 27.1353
      vertex -15 6.10105 28.7032
      vertex -15 8.81678 27.1353
    endloop
  endfacet
  facet normal 0 0.5 0.866025
    outer loop
      vertex -15 6.10105 28.7032
      vertex -16 8.81678 27.1353
      vertex -16 6.10105 28.7032
    endloop
  endfacet
  facet normal 0 -0.5 0.866025
    outer loop
      vertex 15 -6.10105 28.7032
      vertex 16 -8.81678 27.1353
      vertex 16 -6.10105 28.7032
    endloop
  endfacet
  facet normal 0 -0.5 0.866025
    outer loop
      vertex 16 -8.81678 27.1353
      vertex 15 -6.10105 28.7032
      vertex 15 -8.81678 27.1353
    endloop
  endfacet
  facet normal 0 -0.5 0.866025
    outer loop
      vertex -16 -6.10105 28.7032
      vertex -15 -8.81678 27.1353
      vertex -15 -6.10105 28.7032
    endloop
  endfacet
  facet normal 0 -0.5 0.866025
    outer loop
      vertex -15 -8.81678 27.1353
      vertex -16 -6.10105 28.7032
      vertex -16 -8.81678 27.1353
    endloop
  endfacet
  facet normal 0 0.10452 0.994523
    outer loop
      vertex 15 0.0974585 29.9898
      vertex 15 0 30
      vertex 16 0 30
    endloop
  endfacet
  facet normal 8.29894e-07 0.104528 0.994522
    outer loop
      vertex -16 0 30
      vertex -15 3.02122 29.6825
      vertex -16 3.11868 29.6722
    endloop
  endfacet
  facet normal 0 0.104529 0.994522
    outer loop
      vertex -15 3.02122 29.6825
      vertex -16 0 30
      vertex -15 0 30
    endloop
  endfacet
  facet normal 0 -0.309017 0.951057
    outer loop
      vertex 15 -3.11868 29.6722
      vertex 16 -6.10105 28.7032
      vertex 16 -3.11868 29.6722
    endloop
  endfacet
  facet normal 0 -0.309017 0.951057
    outer loop
      vertex 16 -6.10105 28.7032
      vertex 15 -3.11868 29.6722
      vertex 15 -6.10105 28.7032
    endloop
  endfacet
  facet normal 0 -0.309017 0.951057
    outer loop
      vertex -16 -3.11868 29.6722
      vertex -15 -6.10105 28.7032
      vertex -15 -3.11868 29.6722
    endloop
  endfacet
  facet normal 0 -0.309017 0.951057
    outer loop
      vertex -15 -6.10105 28.7032
      vertex -16 -3.11868 29.6722
      vertex -16 -6.10105 28.7032
    endloop
  endfacet
  facet normal -0.809017 -0.587786 0
    outer loop
      vertex 1.25 0 29
      vertex 0.386271 1.18882 30
      vertex 0.386271 1.18882 29
    endloop
  endfacet
  facet normal -0.809017 -0.587786 0
    outer loop
      vertex 0.386271 1.18882 30
      vertex 1.25 0 29
      vertex 1.25 0 30
    endloop
  endfacet
  facet normal 1 -0 0
    outer loop
      vertex -1.01127 -0.734731 30
      vertex -1.01127 0.734731 29
      vertex -1.01127 0.734731 30
    endloop
  endfacet
  facet normal 1 0 0
    outer loop
      vertex -1.01127 0.734731 29
      vertex -1.01127 -0.734731 30
      vertex -1.01127 -0.734731 29
    endloop
  endfacet
  facet normal 0.309017 -0.951056 0
    outer loop
      vertex -1.01127 0.734731 29
      vertex 0.386271 1.18882 30
      vertex -1.01127 0.734731 30
    endloop
  endfacet
  facet normal 0.309017 -0.951056 0
    outer loop
      vertex 0.386271 1.18882 30
      vertex -1.01127 0.734731 29
      vertex 0.386271 1.18882 29
    endloop
  endfacet
  facet normal 0.309017 0.951056 -0
    outer loop
      vertex 0.386271 -1.18882 29
      vertex -1.01127 -0.734731 30
      vertex 0.386271 -1.18882 30
    endloop
  endfacet
  facet normal 0.309017 0.951056 0
    outer loop
      vertex -1.01127 -0.734731 30
      vertex 0.386271 -1.18882 29
      vertex -1.01127 -0.734731 29
    endloop
  endfacet
  facet normal 0 0 1
    outer loop
      vertex 0.386271 1.18882 29
      vertex 0.386271 -1.18882 29
      vertex 1.25 0 29
    endloop
  endfacet
  facet normal -0 0 1
    outer loop
      vertex -1.01127 0.734731 29
      vertex 0.386271 -1.18882 29
      vertex 0.386271 1.18882 29
    endloop
  endfacet
  facet normal 0 0 1
    outer loop
      vertex 0.386271 -1.18882 29
      vertex -1.01127 0.734731 29
      vertex -1.01127 -0.734731 29
    endloop
  endfacet
  facet normal -0.809017 0.587786 0
    outer loop
      vertex 0.386271 -1.18882 29
      vertex 1.25 0 30
      vertex 1.25 0 29
    endloop
  endfacet
  facet normal -0.809017 0.587786 0
    outer loop
      vertex 1.25 0 30
      vertex 0.386271 -1.18882 29
      vertex 0.386271 -1.18882 30
    endloop
  endfacet
endsolid OpenSCAD_Model
